<?xml version="1.0" encoding="utf-8"?>
<!-- Generator: Adobe Illustrator 16.0.0, SVG Export Plug-In . SVG Version: 6.00 Build 0)  -->
<!DOCTYPE svg PUBLIC "-//W3C//DTD SVG 1.1//EN" "http://www.w3.org/Graphics/SVG/1.1/DTD/svg11.dtd">
<svg version="1.1" id="Layer_1" xmlns="http://www.w3.org/2000/svg" xmlns:xlink="http://www.w3.org/1999/xlink" x="0px" y="0px"
	 width="96px" height="48px" viewBox="0 0 96 48" enable-background="new 0 0 96 48" xml:space="preserve">
<g transform="translate(0.5, 0.5)">
	<g>
		<path stroke="#000000" stroke-miterlimit="10" d="M12.144,19.222c-0.104-0.105-0.104-0.261,0-0.364l5.542-5.543l-5.542-5.542
			c-0.104-0.104-0.104-0.26,0-0.364c0.104-0.104,0.26-0.104,0.364,0l5.725,5.725c0.104,0.104,0.104,0.26,0,0.365l-5.725,5.725
			c-0.052,0.052-0.104,0.078-0.181,0.078C12.248,19.3,12.196,19.274,12.144,19.222z"/>
	</g>
</g>
<g transform="translate(0.5, 0.5)">
	<g>
		<path stroke="#000000" stroke-miterlimit="10" d="M60.83,19.3c-0.076,0-0.129-0.026-0.181-0.078l-5.726-5.725
			c-0.104-0.104-0.104-0.26,0-0.365l5.726-5.725c0.104-0.104,0.26-0.104,0.364,0c0.104,0.104,0.104,0.26,0,0.364l-5.543,5.542
			l5.543,5.543c0.104,0.104,0.104,0.259,0,0.364C60.961,19.274,60.909,19.3,60.83,19.3z"/>
	</g>
</g>
</svg>
