<?xml version="1.0" encoding="utf-8"?>
<!-- Generator: Adobe Illustrator 16.0.0, SVG Export Plug-In . SVG Version: 6.00 Build 0)  -->
<!DOCTYPE svg PUBLIC "-//W3C//DTD SVG 1.1//EN" "http://www.w3.org/Graphics/SVG/1.1/DTD/svg11.dtd">
<svg version="1.1" xmlns="http://www.w3.org/2000/svg" xmlns:xlink="http://www.w3.org/1999/xlink" x="0px" y="0px" width="20px"
	 height="20px" viewBox="0 0 20 20" enable-background="new 0 0 20 20" xml:space="preserve">
<g id="Layer_1">
</g>
<g id="Layer_2" display="none">
</g>
<g id="Layer_3">
</g>
<g id="Layer_4">
	<g>
		<path d="M1.099,10.421c-0.062-0.101-0.083-0.054-0.083-0.054l-0.184,0.357c0,0-0.3-0.646-0.386-0.979
			c-0.343-1.312-0.707-4.718,2.978-5.6c1.668-0.4,4.326,0.994,5.945,0.036c1.611-0.951,2.155-0.717,2.998-0.475
			c1.354,0.551,3.485,0.546,3.734,0.375c0.139-0.096,0.447-0.438,0.932-0.16c0,0-0.227,0.463-0.172,0.555
			c0.057,0.09,0.305,0.21,0.392,0.262c0.274,0.163,0.566,0.301,0.85,0.451c0.162,0.086,0.351,0.23,0.351,0.23
			s-0.08,0.361,0.199,0.49c0.336,0.156,0.676,0.303,1.014,0.453c0.068,0.029,0.17,0.09,0.17,0.09s-0.049,0.115-0.082,0.166
			c-0.068,0.102-0.161,0.189-0.251,0.293c0.046,0.07,0.099,0.191,0.099,0.191s-0.049,0.09-0.161,0.14
			c-0.122,0.056-0.253,0.091-0.384,0.136c0.014,0.013,0.025,0.026,0.039,0.037c0.053,0.047,0.106,0.093,0.16,0.139
			c-0.051,0.053-0.092,0.135-0.156,0.154c-0.176,0.059-0.359,0.121-0.543,0.127c-0.268,0.008-1.147,0.191-1.462,0.252l0,0l0,0
			c-0.062,0.011-0.104,0.019-0.11,0.019L16.979,8.1c-0.783,0.106-5.219,0.931-3.684,5.971c0,0,0.554-0.104,0.985,0.158
			c0.389,0.211,0.654,0.625,0.654,1.101h-1.937c0,0-0.505-0.134-0.549-0.212c-0.248-0.112-1.481-0.795-2.339-3.521l-0.079,0.001
			c0,0-3.917,0.581-5.152-0.333l-0.225-0.135c0,0-1.047,1.479,0.753,2.963c0.065-0.011,0.131-0.016,0.198-0.016
			c0.14,0,0.273,0.022,0.398,0.063c0.199,0.056,0.41,0.169,0.565,0.387c0.181,0.217,0.291,0.497,0.291,0.803H4.925
			c0,0-0.444-0.118-0.535-0.196c-0.212-0.143-1.384-0.949-1.474-1.867c0,0-0.665,0.572-1.204,0.869c0,0,0.377,1.42-0.755,1.716
			L0,13.522C0,13.522,2.215,12.229,1.099,10.421z"/>
		<path d="M12.674,11.617c0.076-1.093,1.214-2.396,1.214-2.396s3.4,1.71,3.128,3.52c-0.004,0.027-0.01,0.055-0.014,0.082
			c-0.002,0.021-0.003,0.043-0.006,0.062c-0.022,0.189-0.086,0.364-0.18,0.518c-0.082,0.156-0.176,0.258-0.27,0.312
			c-0.26,0.218-0.604,0.331-0.969,0.289l0.137-1.152C15.105,11.736,12.674,11.617,12.674,11.617z"/>
	</g>
</g>
</svg>
