<?xml version="1.0" encoding="utf-8"?>
<!-- Generator: Adobe Illustrator 16.0.0, SVG Export Plug-In . SVG Version: 6.00 Build 0)  -->
<!DOCTYPE svg PUBLIC "-//W3C//DTD SVG 1.1//EN" "http://www.w3.org/Graphics/SVG/1.1/DTD/svg11.dtd">
<svg version="1.1" xmlns="http://www.w3.org/2000/svg" xmlns:xlink="http://www.w3.org/1999/xlink" x="0px" y="0px" width="20px"
	 height="20px" viewBox="0 0 20 20" enable-background="new 0 0 20 20" xml:space="preserve">
<g id="Layer_1">
</g>
<g id="Layer_2" display="none">
</g>
<g id="Layer_3">
</g>
<g id="Layer_4">
	<path d="M19.279,6.352c-0.086-1.535-1.967-1.334-2.07-1.319c-0.579,0.079-0.955-0.218-1.262-0.659
		c-0.097-0.138-0.213-0.271-0.342-0.378c-0.557-0.462-1.211-0.636-1.927-0.652c-0.421-0.009-0.853-0.028-1.255-0.136
		c-0.685-0.183-1.333-0.113-1.985,0.113C9.641,3.597,8.844,3.877,8.039,4.135C6.947,4.486,5.848,4.817,4.75,5.155
		C4.682,5.178,4.605,5.182,4.537,5.203C4.109,5.336,3.676,5.449,3.26,5.609C2.8,5.788,2.339,5.938,1.839,5.92
		C1.573,5.91,1.378,6.035,1.193,6.209C0.95,6.439,0.893,6.744,0.817,7.043C0.698,7.514,0.583,7.986,0.484,8.461
		C0.406,8.838,0.35,9.221,0.098,9.577C0.194,9.521,0.264,9.48,0.332,9.439C0.343,9.454,0.133,9.77,0,9.935
		c0.473-0.198,0.833-0.476,0.912-0.983C0.975,8.543,0.975,8.126,1.02,7.715c0.033-0.313,0.076-0.629,0.146-0.937
		c0.059-0.251,0.363-0.478,0.547-0.462c-0.067,0.15-0.162,0.298-0.202,0.459c-0.121,0.483-0.05,0.964,0.145,1.41
		c0.115,0.264,0.118,0.518,0.086,0.785c-0.013,0.098-0.035,0.193-0.036,0.29C1.696,9.75,1.513,10.145,1.057,10.35
		c-0.328,0.148-0.326,0.407-0.398,0.709c-0.235,0.984-0.25,3.07-0.25,3.07s0.063,0.001,0.145,0h0.825
		c0-0.218-0.165-0.393-0.377-0.422c-0.166-0.473,0.097-1.801,0.226-2.119c0.143-0.354,0.395-0.594,0.744-0.768
		c0.279-0.139,0.536-0.457,0.786-0.65c0.076-0.059,0.364-0.07,0.394-0.059c-0.074,0.361-0.267,0.691-0.358,1.049
		c-0.069,0.265-0.025,0.467,0.129,0.704c0.335,0.509,0.946,1.613,1.717,2.265h0.867c0-0.238-0.194-0.434-0.434-0.434
		c-0.021,0-0.04,0.01-0.06,0.012c-0.458-0.373-0.801-0.846-1.094-1.346c-0.227-0.384-0.416-0.798-0.118-1.263
		c0.199-0.312,0.333-0.667,0.519-0.993c0.079-0.14,0.213-0.248,0.291-0.338c0.394,0.201,0.789,0.398,1.183,0.606
		c0.324,0.171,0.532,0.225,0.857,0.678c0.208-0.249-0.077-0.349,0.014-0.525c0.933-0.104,1.847-0.388,2.792-0.353
		c-0.111,0.353-0.233,0.676-0.31,1.01c-0.045,0.195-0.047,0.412-0.013,0.611c0.066,0.369,1.667,2.291,1.683,2.334h0.867
		c0-0.238-0.193-0.434-0.433-0.434c-0.056,0-0.107,0.013-0.156,0.031c-0.101-0.105-0.201-0.211-0.303-0.314
		c-0.307-0.314-0.322-0.674-0.053-1.012c0.074-0.094,0.46-0.857,0.592-1.121c0.444,0.236,1.912,1.795,1.956,1.947
		c-0.031,0.027-0.086,0.077-0.144,0.128c-0.016,0.008-0.031,0.009-0.046,0.019l0.009,0.014c-0.002,0.003-0.003,0.004-0.006,0.006
		c0.119,0.177,0.235,0.348,0.353,0.521l0.073,0.112c0.018,0.038,0.033,0.074,0.048,0.072c0.102-0.067,0.165-0.17,0.187-0.28
		c0.364-0.87-0.426-2.704,0.334-3.153c1.621-0.957,2.235,1.195,2.235,1.195c0.331-0.26,1.001-1.017,1.108-1.185
		c0.174-0.274,0.389-0.338,0.705-0.209c0.312,0.128,0.615-0.058,0.711-0.379c0.091-0.306,0.454-1.083,0.468-1.184
		c0.051-0.389,0.098-0.771,0.278-1.132C19.669,7.633,19.297,6.682,19.279,6.352z M17.254,7.841
		c-0.096,0.333-0.347,0.333-0.595,0.257c-0.573-0.18-1.034-0.491-1.196-1.127c-0.172-0.684,0.196-1.159,0.647-1.62
		c-0.014,0.118-0.013,0.239-0.042,0.354c-0.208,0.762,0.297,1.229,0.891,1.501C17.274,7.35,17.352,7.502,17.254,7.841z"/>
</g>
</svg>
