<?xml version="1.0" encoding="utf-8"?>
<!-- Generator: Adobe Illustrator 16.0.0, SVG Export Plug-In . SVG Version: 6.00 Build 0)  -->
<!DOCTYPE svg PUBLIC "-//W3C//DTD SVG 1.1//EN" "http://www.w3.org/Graphics/SVG/1.1/DTD/svg11.dtd">
<svg version="1.1" xmlns="http://www.w3.org/2000/svg" xmlns:xlink="http://www.w3.org/1999/xlink" x="0px" y="0px" width="20px"
	 height="20px" viewBox="0 0 20 20" enable-background="new 0 0 20 20" xml:space="preserve">
<g id="Layer_1">
</g>
<g id="Layer_2" display="none">
</g>
<g id="Layer_3">
</g>
<g id="Layer_4">
	<path d="M10.095,1.941c-2.586,0-4.689,2.128-4.689,4.744c0,0.687,0.377,1.902,1.438,3.26c1.773,2.271,2.945,5.825,3.056,7.951
		l0.009,0.163h0.375l0.008-0.163c0.109-2.126,1.282-5.68,3.057-7.951c1.059-1.357,1.438-2.573,1.438-3.26
		C14.785,4.069,12.681,1.941,10.095,1.941z M10.072,8.433c-1.058,0-1.915-0.857-1.915-1.915c0-1.059,0.857-1.916,1.915-1.916
		c1.059,0,1.916,0.857,1.916,1.916C11.988,7.575,11.131,8.433,10.072,8.433z"/>
</g>
</svg>
