<?xml version="1.0" encoding="utf-8"?>
<!-- Generator: Adobe Illustrator 16.0.0, SVG Export Plug-In . SVG Version: 6.00 Build 0)  -->
<!DOCTYPE svg PUBLIC "-//W3C//DTD SVG 1.1//EN" "http://www.w3.org/Graphics/SVG/1.1/DTD/svg11.dtd">
<svg version="1.1" xmlns="http://www.w3.org/2000/svg" xmlns:xlink="http://www.w3.org/1999/xlink" x="0px" y="0px" width="20px"
	 height="20.002px" viewBox="0 0 20 20.002" enable-background="new 0 0 20 20.002" xml:space="preserve">
<g id="Layer_1">
</g>
<g id="Layer_2" display="none">
</g>
<g id="Layer_3">
</g>
<g id="Layer_4">
	<path fill-rule="evenodd" clip-rule="evenodd" d="M12.281,7.613c0.816-0.451,1.317-1.186,1.748-1.98
		c0.031-0.06,0.045-0.133,0.051-0.202c0.01-0.153,0.01-0.31,0.013-0.462c0.001-0.062,0.001-0.123,0.001-0.15
		c-0.216-0.078-0.406-0.15-0.597-0.22c-0.153-0.056-0.306-0.12-0.464-0.163c-0.553-0.142-1.016-0.42-1.369-0.871
		c-0.192-0.245-0.396-0.482-0.577-0.733c-0.188-0.259-0.435-0.438-0.707-0.599c-0.231-0.135-0.445-0.3-0.658-0.462
		c-0.13-0.101-0.234-0.237-0.37-0.327C9.221,1.355,9.068,1.266,8.918,1.247C8.61,1.209,8.442,1.002,8.262,0.796
		c0.069,0.013,0.127,0.046,0.188,0.075c0.104,0.051,0.207,0.115,0.318,0.143c0.36,0.086,0.404,0.04,0.432-0.326
		c0.016-0.213,0.065-0.424,0.1-0.635C9.32,0.055,9.344,0.059,9.366,0.06c0,0.103,0,0.204,0,0.308C9.369,0.583,9.32,0.825,9.48,0.993
		c0.282,0.298,0.587,0.574,0.896,0.843c0.124,0.106,0.314,0.203,0.451,0.092c0.093-0.078,0.093-0.269,0.12-0.36
		c-0.434-0.226-0.819-0.429-1.205-0.632c0.006-0.019,0.014-0.037,0.019-0.057c0.075,0.014,0.158,0.013,0.224,0.045
		c0.163,0.078,0.325,0.164,0.478,0.263c0.137,0.087,0.273,0.12,0.47,0.066c-0.102-0.216-0.234-0.412-0.282-0.626
		c-0.046-0.215-0.01-0.447-0.01-0.674c0.01,0,0.021,0,0.032-0.001c0.11,0.305,0.222,0.609,0.333,0.915
		c0.017-0.006,0.037-0.012,0.054-0.018c0.031-0.162,0.062-0.323,0.093-0.484c0.019,0,0.037,0,0.057,0
		c0,0.18,0.012,0.358-0.003,0.536c-0.017,0.192,0.06,0.333,0.206,0.438c0.4,0.279,0.8,0.559,1.206,0.827
		c0.172,0.113,0.298,0.1,0.408-0.076c0.115-0.186,0.204-0.396,0.262-0.605c0.073-0.264,0.104-0.539,0.154-0.811
		c0.036,0.064,0.058,0.129,0.052,0.191c-0.021,0.268-0.038,0.539-0.082,0.804c-0.036,0.224-0.147,0.441-0.155,0.663
		c-0.014,0.397,0.148,0.748,0.419,1.051c0.358-0.365,0.157-0.869,0.355-1.268c0.102,0.479,0.21,0.959-0.04,1.433
		c-0.03,0.054-0.056,0.14-0.033,0.188c0.131,0.272,0.507,0.468,0.8,0.394c0.146-0.037,0.295-0.127,0.403-0.231
		c0.05-0.051,0.013-0.194,0.006-0.296c-0.012-0.133,0.076-0.174,0.171-0.219c0.013,0.125,0.025,0.236,0.039,0.371
		c0.31-0.358,0.312-0.779,0.39-1.186c0.026,0.293,0.08,0.594,0.014,0.867c-0.1,0.418-0.34,0.772-0.771,0.944
		c0.065,0.124,0.136,0.146,0.237,0.081c0.21-0.139,0.448-0.248,0.632-0.417c0.327-0.298,0.718-0.583,0.588-1.128
		c-0.001-0.01,0.016-0.024,0.024-0.039c0.238,0.279,0.261,0.519,0.06,0.818c-0.125,0.184-0.27,0.354-0.405,0.529
		c0.629-0.099,0.873-0.502,0.86-1.119c0.054,0.087,0.092,0.16,0.102,0.239c0.044,0.375-0.086,0.692-0.394,0.902
		c-0.209,0.144-0.458,0.229-0.689,0.343c-0.127,0.062-0.253,0.127-0.413,0.207c0.239,0.164,0.388-0.109,0.598-0.031
		c-0.104,0.172-0.199,0.33-0.299,0.496c0.025,0.02,0.051,0.045,0.08,0.061c0.258,0.135,0.514,0.271,0.773,0.403
		c0.337,0.172,0.671,0.354,1.02,0.503c0.287,0.123,0.465,0.375,0.341,0.59c-0.121,0.211-0.254,0.419-0.568,0.361 M16.022,7.9
		c-0.032,0.022-0.047,0.105-0.034,0.152 M11.452,2.504c0.192,0.282,0.374,0.57,0.56,0.854c0.279,0.424,0.698,0.632,1.177,0.734
		c0.062,0.014,0.171-0.035,0.2-0.087c0.048-0.081,0.096-0.218,0.058-0.28c-0.198-0.346-0.419-0.68-0.645-1.01
		c-0.056-0.084-0.146-0.153-0.232-0.209c-0.39-0.252-0.781-0.497-1.174-0.744c-0.048-0.029-0.1-0.055-0.162-0.09
		C11.229,1.984,11.281,2.257,11.452,2.504z M14.064,4.393c0.003-0.007,0.006-0.014,0.008-0.021
		c-0.112-0.096-0.224-0.191-0.351-0.299c-0.036,0.045-0.073,0.094-0.134,0.172C13.77,4.301,13.916,4.346,14.064,4.393z"/>
	<path d="M17.357,7.166c0,0-1.259,0.01-1.335,0.734c-0.078,0.725-0.23,2.033-1.212,2.484c-0.92,0.424-0.826,0.362-1.076,0.9
		c-0.25,0.539-0.816,1.31-0.816,1.31s0.937,4.009,1.451,4.495l-0.322,0.413c0,0-1.668-4.003-2.424-4.853c0,0-0.273-0.236-0.898,0.66
		c-0.624,0.897-2.328,3.693-2.328,3.693s-0.053-0.327-0.421-0.327c-0.11,0,2.124-2.687,1.896-3.907c0,0-2.426,0.297-3.816-0.404
		c0,0-0.909,1.154-0.688,1.712c0.594,1.499,1.389,2.396,1.465,2.511c0.337,0.514-0.404-0.006-0.41,0.188
		c0,0-1.512-2.133-1.724-2.377c-0.21-0.244-0.67-0.588,0.067-1.654c0,0-1.884,0.149-2.169,1.742
		c-0.161,0.891-0.383,2.219-0.185,2.617c0.196,0.399,0.196,0.399,0.196,0.399h-0.97c0,0,0.402-2.232,0.412-3.639
		c0,0-0.193-0.367,0.457-0.962c0.65-0.596,1.44-2.472,0.698-3.019C2.709,9.518,2.795,8.329,3.82,8.053
		C5.087,7.711,5.559,7.827,6.919,8.07c1.359,0.242,2.819,0.005,3.334-0.107c0.515-0.111,1.138-0.298,1.635-0.229
		c0.498,0.068,1.2-0.701,1.425-0.996C13.537,6.441,17.357,7.166,17.357,7.166z"/>
	<path d="M14.047,17.506h0.861c0-0.236-0.192-0.43-0.431-0.43C14.24,17.076,14.047,17.27,14.047,17.506z"/>
	<path d="M1.923,17.506h0.86c0-0.236-0.193-0.43-0.43-0.43C2.116,17.076,1.923,17.27,1.923,17.506z"/>
	<path d="M6.421,16.775l0.73,0.454c0.126-0.202,0.063-0.468-0.138-0.593C6.812,16.512,6.547,16.574,6.421,16.775z"/>
	<path d="M7.976,16.677l0.122,0.852c0.236-0.034,0.398-0.251,0.364-0.486S8.209,16.643,7.976,16.677z"/>
</g>
</svg>
