<?xml version="1.0" encoding="utf-8"?>
<!-- Generator: Adobe Illustrator 16.0.0, SVG Export Plug-In . SVG Version: 6.00 Build 0)  -->
<!DOCTYPE svg PUBLIC "-//W3C//DTD SVG 1.1//EN" "http://www.w3.org/Graphics/SVG/1.1/DTD/svg11.dtd">
<svg version="1.1" id="Layer_1" xmlns="http://www.w3.org/2000/svg" xmlns:xlink="http://www.w3.org/1999/xlink" x="0px" y="0px"
	 width="155.905px" height="155.905px" viewBox="0 0 155.905 155.905" enable-background="new 0 0 155.905 155.905"
	 xml:space="preserve">
<rect x="0.288" y="0.194" fill="#262626" width="155.906" height="155.906"/>
<g>
	<path fill="#353535" d="M76.733,3.34c0.146,0.128,0.28,0.277,0.416,0.416c0.118,0.138,0.248,0.271,0.378,0.386
		c2.399,2.195,4.955,3.401,7.182,3.401l0,0c2.204,0,4.069-1.117,5.539-3.318c0.8-1.188,1.431-2.609,1.821-4.03h-0.076
		c-0.39,1.41-1.016,2.81-1.8,3.992c-1.464,2.173-3.307,3.284-5.484,3.284l0,0c-2.21,0-4.744-1.206-7.139-3.378
		c-0.124-0.116-0.242-0.249-0.373-0.388c-0.135-0.143-0.275-0.287-0.415-0.425c-1.076-0.963-2.232-1.847-3.351-2.704
		c-0.167-0.128-0.33-0.249-0.497-0.382h-0.119c0.188,0.149,0.383,0.293,0.578,0.442C74.512,1.493,75.663,2.378,76.733,3.34z"/>
	<path fill="#353535" d="M5.545,10.468c1.556-1.482,3.167-3.02,4.198-5.214c0.52-1.117,1.032-2.881,1.27-5.06h-0.075
		c-0.232,2.168-0.746,3.921-1.259,5.031C8.658,7.398,7.053,8.93,5.497,10.412c-1.811,1.725-3.68,3.5-4.604,6.309
		c-0.032,0.083-0.059,0.166-0.081,0.254v0.249c0.043-0.165,0.097-0.326,0.146-0.475C1.882,13.956,3.746,12.182,5.545,10.468z"/>
	<path fill="#353535" d="M84.179,4.126L84.179,4.126c0.762,0,1.503-0.271,2.184-0.802C87,2.831,87.313,2.328,87.644,1.809
		c0.135-0.221,0.28-0.447,0.447-0.68c0.131-0.304,0.238-0.619,0.33-0.935h-0.076c-0.091,0.304-0.193,0.603-0.312,0.891
		c-0.173,0.232-0.313,0.458-0.449,0.686c-0.324,0.52-0.637,1.007-1.259,1.493c-0.681,0.525-1.394,0.79-2.146,0.79l0,0
		c-2.004,0-3.928-1.824-5.624-3.428c-0.157-0.149-0.304-0.287-0.455-0.432h-0.107C78.16,0.355,78.327,0.51,78.5,0.676
		C80.207,2.295,82.148,4.126,84.179,4.126z"/>
	<path fill="#353535" d="M2.125,23.411c0.362-1.913,0.697-3.722,1.216-4.998c0.875-2.179,2.696-4.009,4.62-5.949
		c1.188-1.188,2.41-2.417,3.442-3.771c1.292-1.686,2.156-3.146,2.88-4.87c0.427-1.018,0.794-2.19,1.151-3.324
		c0.032-0.099,0.07-0.204,0.097-0.304h-0.076c-0.027,0.094-0.06,0.188-0.092,0.282c-0.351,1.134-0.719,2.306-1.146,3.317
		c-0.724,1.719-1.583,3.174-2.875,4.854c-1.032,1.344-2.253,2.578-3.431,3.761c-1.935,1.952-3.761,3.787-4.642,5.978
		c-0.519,1.282-0.859,3.096-1.216,5.015c-0.346,1.847-0.703,3.76-1.232,5.152c-0.005,0.011-0.011,0.021-0.011,0.033v0.193
		c0.022-0.071,0.054-0.133,0.081-0.199C1.428,27.176,1.785,25.263,2.125,23.411z"/>
	<path fill="#353535" d="M8.025,47.252c2.513,1.028,5.636,2.3,6.831,4.903c0.081,1.422-0.405,2.632-0.924,3.909
		c-0.729,1.792-1.556,3.82-1.091,6.994c0.357,2.411,1.74,3.959,3.345,5.75c0.665,0.741,1.34,1.505,1.988,2.372
		c1.691,2.278,2.848,4.85,3.745,7.066c0.902,2.206,1.61,3.948,3.978,4.528c1.415,0.348,3.393,0.591,4.749,0.735
		c0.751,0.082,1.448,0.127,2.076,0.127c1.042,0,1.94-0.116,2.696-0.343c1.604-0.487,2.626-1.825,3.912-3.517
		c0.384-0.503,0.778-1.017,1.227-1.564c0.302-0.376,0.703-0.785,1.129-1.228c0.886-0.912,1.799-1.858,2.053-2.615
		c0.092-0.293,0.065-0.559,0.043-0.862c-0.021-0.232-0.043-0.487-0.016-0.791l0.005-0.016l-0.01-0.012
		c-0.86-1.161-1.902-2.09-2.913-2.997c-1.713-1.536-3.34-2.985-3.95-5.368c-0.324-1.255-0.206-2.599,0.356-4.107
		c0.6-1.593,1.994-3.346,3.939-4.928c0.875-0.713,1.805-1.453,2.789-2.244c4.512-3.6,9.629-7.68,12.423-11.235l0.005-0.021
		c0.092-0.437,0.06-0.935-0.064-1.481c-0.362-1.493-1.502-3.269-3.134-4.872c-1.556-1.52-3.323-2.659-4.733-3.057
		c-0.114-0.033-0.335-0.095-0.573-0.145c-1.88-0.431-3.831-0.132-5.711,0.155c-1.627,0.249-3.172,0.486-4.669,0.288
		c-3.237-0.438-5.565-2.654-6.387-6.082c-1.081-4.501,1.907-7.326,4.798-10.062c2.129-2.024,4.339-4.108,4.917-6.861
		c0.551-2.594-0.167-5.392-0.643-7.243c-0.189-0.747-0.422-1.493-0.67-2.234h-0.076c0.254,0.747,0.481,1.499,0.676,2.256
		c0.47,1.842,1.188,4.628,0.643,7.205c-0.573,2.73-2.772,4.81-4.901,6.822c-2.902,2.748-5.906,5.59-4.814,10.135
		c0.827,3.456,3.188,5.694,6.452,6.131c1.502,0.2,3.047-0.032,4.685-0.281c1.875-0.287,3.815-0.581,5.685-0.155
		c0.232,0.05,0.459,0.111,0.573,0.145c2.799,0.785,7.036,4.654,7.809,7.867c0.135,0.542,0.157,1.028,0.076,1.448
		c-2.794,3.55-7.9,7.631-12.407,11.224c-0.988,0.785-1.918,1.526-2.793,2.24c-1.951,1.592-3.355,3.351-3.955,4.965
		c-0.568,1.521-0.687,2.875-0.362,4.146c0.622,2.405,2.248,3.87,3.972,5.413c1.004,0.895,2.037,1.824,2.896,2.968
		c-0.027,0.305-0.005,0.559,0.011,0.792c0.032,0.298,0.054,0.552-0.038,0.828c-0.248,0.742-1.15,1.688-2.037,2.595
		c-0.422,0.436-0.827,0.851-1.13,1.227c-0.448,0.542-0.848,1.062-1.232,1.57c-1.28,1.681-2.291,3.008-3.875,3.488
		c-1.205,0.365-2.756,0.438-4.739,0.216c-1.362-0.148-3.334-0.393-4.744-0.735c-2.33-0.563-3.037-2.295-3.929-4.483
		c-0.903-2.223-2.053-4.8-3.75-7.089c-0.648-0.867-1.33-1.631-1.989-2.372c-1.6-1.78-2.978-3.322-3.329-5.711
		c-0.465-3.151,0.357-5.169,1.081-6.956c0.519-1.288,1.016-2.504,0.935-3.947l-0.005-0.017c-1.21-2.626-4.35-3.914-6.874-4.937
		c-0.686-0.282-1.394-0.57-2.167-0.741c-1.784-0.394-3.48-0.608-5.074-0.675v0.077c1.588,0.056,3.28,0.282,5.058,0.669
		C6.637,46.688,7.345,46.976,8.025,47.252z"/>
	<path fill="#353535" d="M44.679,2.345c0.195,0.764,0.421,1.526,0.643,2.273c0.476,1.642,0.924,3.195,1.102,4.583
		c0.135,0.99,0.135,2.013,0.006,2.726c-0.373,2.146-1.783,3.815-3.145,5.436c-1.562,1.853-3.177,3.775-3.302,6.446
		c0.167,2.378,2.789,2.727,5.561,3.086c0.508,0.071,1.037,0.138,1.545,0.221c2.032,0.331,4.372,0.995,6.766,1.912
		c0.837,0.327,1.642,0.73,2.426,1.123c1.491,0.757,2.902,1.477,4.55,1.664c0.211,0.022,0.421,0.033,0.643,0.033
		c1.119,0,2.091-0.32,2.923-0.625c0.843-0.304,1.567-0.63,2.27-0.956c1.508-0.681,2.929-1.321,5.123-1.521
		c0.389-0.044,0.79-0.061,1.184-0.061c2.382,0,4.376,0.641,6.312,1.261c1.664,0.541,3.247,1.045,4.885,1.045
		c0.324,0,0.648-0.017,0.955-0.062c2.487-0.319,4.399-1.637,5.837-4.029c1.27-2.112,1.999-4.783,2.609-7.354
		c0.179-0.752,0.492-2.162,0.601-3.185c0.108-0.962-0.038-1.664-0.454-2.151c-0.751-0.89-2.259-0.944-4.004-1
		c-0.794-0.028-1.61-0.056-2.426-0.166c-3.437-0.453-6.317-0.907-9.506-2.272c-2.626-1.116-5.252-2.516-6.998-3.482
		c-2.929-1.643-6.247-3.672-8.586-7.095h-0.086c2.351,3.456,5.685,5.513,8.641,7.16c1.74,0.974,4.366,2.366,6.998,3.488
		c3.193,1.36,6.084,1.819,9.526,2.279c0.815,0.104,1.638,0.132,2.432,0.165c1.729,0.056,3.227,0.105,3.961,0.973
		c0.395,0.47,0.541,1.156,0.433,2.096c-0.113,1.019-0.422,2.422-0.601,3.174c-1.209,5.114-2.949,10.632-8.386,11.329
		c-0.309,0.038-0.627,0.055-0.945,0.055c-1.627,0-3.199-0.503-4.869-1.039c-1.935-0.619-3.934-1.261-6.328-1.261
		c-0.394,0-0.794,0.017-1.188,0.056c-2.205,0.199-3.631,0.852-5.145,1.537c-0.703,0.315-1.427,0.647-2.264,0.95
		c-0.827,0.299-1.799,0.614-2.902,0.614c-0.216,0-0.427-0.011-0.632-0.033c-1.632-0.183-3.037-0.896-4.528-1.648
		c-0.783-0.397-1.588-0.806-2.432-1.127c-2.399-0.924-4.744-1.587-6.776-1.919c-0.513-0.083-1.042-0.154-1.55-0.215
		c-2.74-0.365-5.333-0.709-5.501-3.025c0.124-2.631,1.734-4.545,3.285-6.396c1.373-1.62,2.783-3.306,3.167-5.463
		c0.13-0.724,0.119-1.752-0.005-2.754c-0.184-1.397-0.638-2.945-1.114-4.588c-0.216-0.746-0.438-1.521-0.643-2.278
		c-0.13-0.492-0.265-0.995-0.405-1.481c-0.06-0.21-0.114-0.431-0.179-0.647h-0.075c0.065,0.228,0.129,0.448,0.184,0.67
		C44.408,1.351,44.544,1.848,44.679,2.345z"/>
	<path fill="#353535" d="M5.848,5.11c0.735-1.167,1.394-2.571,1.405-4.916h-0.07C7.167,2.518,6.519,3.915,5.789,5.071
		c-0.93,1.465-2.27,2.344-3.696,3.279c-0.427,0.282-0.86,0.562-1.281,0.867v0.089c0.432-0.311,0.88-0.604,1.318-0.891
		C3.557,7.477,4.908,6.592,5.848,5.11z"/>
	<path fill="#353535" d="M49.413,6.823c0.438,1.008,0.896,2.035,1.048,3.114c0.427,2.951-1.064,4.87-2.502,6.733
		c-0.989,1.266-1.913,2.461-2.199,3.931c-0.075,0.371-0.054,0.598-0.038,0.891c0.011,0.154,0.021,0.321,0.021,0.548v0.011
		c0.367,1.045,1.464,1.78,2.324,2.211c3.102,1.571,8.154,2.312,11.839,2.854c0.557,0.077,1.108,0.121,1.681,0.121l0,0
		c1.432,0,2.761-0.248,4.166-0.509c1.502-0.276,3.059-0.569,4.853-0.569c0.475,0,0.961,0.022,1.432,0.062
		c0.098,0.011,0.368,0.027,0.713,0.05c0.508,0.027,1.146,0.061,1.594,0.1c1.503,0.115,2.691,0.387,3.836,0.652
		c1.535,0.349,2.973,0.68,5.106,0.68c0.223,0,0.455-0.005,0.687-0.011c1.696-0.271,3.253-2.102,3.875-4.556
		c0.513-2.03,0.394-4.728-1.476-6.221c-2.199-1.752-8.607-3.289-12.05-3.571c-0.734-0.066-1.345-0.072-1.934-0.072
		c-0.659-0.005-1.335-0.011-2.221-0.089c-2.372-0.221-4.333-1.177-6.565-3.201c-2.761-2.51-4.258-4.45-6.397-8.293
		c-0.233-0.415-0.449-0.924-0.649-1.493h-0.081c0.21,0.581,0.426,1.105,0.67,1.526c2.14,3.854,3.637,5.795,6.414,8.315
		c2.237,2.035,4.215,2.997,6.603,3.218c0.886,0.083,1.567,0.089,2.227,0.089c0.616,0.006,1.194,0.011,1.929,0.071
		c3.431,0.287,9.819,1.814,12.017,3.561c1.837,1.465,1.945,4.136,1.443,6.144c-0.61,2.422-2.15,4.229-3.815,4.5
		c-0.227,0.006-0.453,0.012-0.676,0.012c-2.117,0-3.565-0.338-5.089-0.681c-1.152-0.266-2.341-0.537-3.848-0.652
		c-0.448-0.033-1.086-0.077-1.594-0.105c-0.346-0.017-0.616-0.033-0.713-0.039c-0.476-0.049-0.956-0.065-1.437-0.065
		c-1.8,0-3.361,0.288-4.864,0.568c-1.404,0.261-2.729,0.505-4.155,0.505l0,0c-0.573,0-1.119-0.033-1.67-0.117
		c-3.68-0.542-8.727-1.276-11.818-2.847c-0.843-0.421-1.923-1.145-2.28-2.168c-0.005-0.221-0.016-0.388-0.021-0.542
		c-0.027-0.287-0.043-0.508,0.032-0.873c0.287-1.443,1.205-2.638,2.183-3.898c1.454-1.868,2.95-3.804,2.518-6.789
		c-0.157-1.084-0.61-2.129-1.054-3.13c-0.173-0.393-0.356-0.802-0.513-1.211c-0.567-1.443-1.232-3.383-1.654-5.391h-0.07
		c0.427,2.019,1.092,3.976,1.659,5.424C49.056,6.021,49.234,6.432,49.413,6.823z"/>
	<path fill="#353535" d="M8.301,36.642c1-1.139,1.886-2.355,2.826-3.639c1.492-2.034,3.032-4.135,5.02-5.871
		c0.141-0.133,0.281-0.276,0.411-0.421c0.119-0.132,0.248-0.265,0.378-0.386c1.297-1.173,2.783-2.112,4.215-3.014
		c0.994-0.631,2.026-1.277,2.993-2.007c0.768-0.581,1.541-1.189,2.28-1.775c1.13-0.896,2.297-1.813,3.475-2.643
		c0.557-0.393,1.135-0.769,1.751-1.167c3.005-1.963,6.409-4.185,6.927-8.204c0.276-2.123-0.27-4.86-1.432-7.321H37.07
		c1.162,2.455,1.708,5.192,1.438,7.315c-0.519,3.986-3.907,6.197-6.9,8.144c-0.611,0.398-1.189,0.78-1.746,1.167
		c-1.183,0.834-2.351,1.758-3.475,2.648c-0.746,0.586-1.513,1.194-2.291,1.774c-0.962,0.725-1.988,1.377-2.983,2.001
		c-1.437,0.913-2.923,1.853-4.22,3.025c-0.141,0.121-0.265,0.266-0.389,0.392c-0.129,0.139-0.259,0.288-0.405,0.41
		c-1.994,1.741-3.54,3.848-5.026,5.883c-0.94,1.288-1.832,2.499-2.826,3.632c-1.978,2.256-4.593,3.782-7.435,4.39v0.078
		C3.676,40.434,6.313,38.902,8.301,36.642z"/>
	<path fill="#353535" d="M3.871,33.778c0.967-1.444,0.972-4.064,0.87-6.188c-0.081-1.715-0.054-4.987,1.043-7.707
		c0.848-2.079,2.858-3.932,4.804-5.712c0.297-0.276,0.588-0.547,0.875-0.818c3.896-3.633,5.831-6.899,7.533-10.677
		c0.146-0.32,0.27-0.662,0.394-0.995c0.151-0.415,0.313-0.835,0.513-1.244c0.038-0.082,0.081-0.165,0.119-0.243H19.94
		c-0.032,0.072-0.07,0.139-0.108,0.205c-0.2,0.414-0.356,0.84-0.508,1.255c-0.125,0.332-0.249,0.669-0.4,0.989
		c-1.697,3.776-3.621,7.034-7.511,10.66c-0.286,0.271-0.583,0.536-0.875,0.808c-1.951,1.791-3.972,3.644-4.82,5.744
		c-1.103,2.731-1.13,6.021-1.048,7.735c0.102,2.117,0.092,4.722-0.859,6.148c-0.692,1.022-1.794,1.752-2.999,2.377v0.083
		C2.039,35.563,3.163,34.828,3.871,33.778z"/>
	<path fill="#353535" d="M1.887,2.225c0.47-0.498,0.67-1.272,0.67-2.03H2.476c0,0.747-0.2,1.51-0.637,1.979
		c-0.308,0.327-0.66,0.503-1.027,0.503V2.672v0.077l0,0C1.196,2.749,1.568,2.566,1.887,2.225z"/>
	<path fill="#353535" d="M24.085,1.367c-1.027,1.238-1.778,2.93-2.502,4.566c-0.113,0.249-0.222,0.492-0.33,0.741
		c-1.06,2.333-2.372,5.241-3.81,7.227c-0.778,1.084-2.064,1.863-3.426,2.687c-1.929,1.167-3.923,2.377-4.701,4.6
		c-0.28,0.802-0.286,1.682-0.01,2.782c0.27,0.613,0.74,0.923,1.389,0.923l0,0c1.07,0,2.334-0.847,2.853-1.3
		c1.032-0.89,1.94-2.123,2.81-3.322c0.47-0.636,0.952-1.306,1.448-1.913c0.243-0.282,1.076-1.255,1.772-1.676
		c1.653-0.995,3.772-1.758,6.014-2.564c3.118-1.117,6.333-2.273,8.338-4.153c1.07-0.983,1.702-2.532,1.756-4.235
		c0.048-1.824-0.567-3.555-1.75-4.882c-0.211-0.231-0.438-0.458-0.681-0.652h-0.119c0.259,0.211,0.513,0.448,0.746,0.708
		c1.167,1.305,1.783,3.019,1.729,4.82c-0.043,1.682-0.676,3.213-1.724,4.187c-2,1.863-5.215,3.019-8.316,4.136
		c-2.248,0.807-4.366,1.569-6.025,2.57c-0.719,0.438-1.551,1.41-1.789,1.698c-0.508,0.603-0.989,1.271-1.459,1.919
		c-0.87,1.188-1.767,2.416-2.794,3.3c-0.513,0.448-1.761,1.288-2.81,1.288c-0.622,0-1.064-0.293-1.324-0.879
		c-0.264-1.072-0.259-1.94,0.016-2.731c0.768-2.195,2.75-3.395,4.669-4.556c1.367-0.83,2.659-1.614,3.453-2.715
		c1.432-1.984,2.745-4.898,3.809-7.231c0.108-0.249,0.216-0.498,0.33-0.746c0.724-1.632,1.475-3.312,2.496-4.545
		c0.384-0.47,0.832-0.874,1.324-1.223h-0.124C24.88,0.532,24.453,0.925,24.085,1.367z"/>
	<path fill="#353535" d="M52.66,20.282l0.005,0.01c0.13,0.139,0.206,0.332,0.276,0.521l0.016,0.038l0.011,0.022
		c0.529,0.503,1.318,0.785,2.226,0.785l0,0c1.291,0,2.572-0.559,3.199-1.382c0.378-0.504,0.498-1.073,0.356-1.659
		c-0.276-1.095-1.297-1.454-2.41-1.748l-0.005-0.005l-0.005,0.005c-1.892,0.282-3.848,1.466-3.669,3.401V20.282z M56.329,16.941
		c1.091,0.294,2.08,0.637,2.35,1.692c0.135,0.564,0.022,1.117-0.346,1.599c-0.61,0.807-1.875,1.354-3.139,1.354l0,0
		c-0.886,0-1.659-0.276-2.172-0.77l-0.011-0.027c-0.075-0.194-0.151-0.393-0.28-0.542C52.546,18.098,55,17.146,56.329,16.941z"/>
	<path fill="#353535" d="M72.237,21.554l0.027,0.05l0.011,0.005c1.162,0.747,3.085,1.244,4.782,1.244l0,0
		c1.119,0,3.069-0.227,3.577-1.771v-0.004c0.012-0.536-0.178-1.013-0.572-1.422c-0.735-0.773-2.199-1.249-3.814-1.249
		c-2.048,0-4.259,0.808-4.291,2.599v0.011l0.016,0.012C72.097,21.166,72.172,21.364,72.237,21.554z M76.247,18.479
		c1.594,0,3.042,0.477,3.767,1.229c0.372,0.397,0.556,0.851,0.55,1.36c-0.496,1.492-2.415,1.713-3.507,1.713l0,0
		c-1.68,0-3.577-0.492-4.738-1.227l-0.011-0.033c-0.076-0.188-0.146-0.388-0.275-0.531C72.07,19.264,74.242,18.479,76.247,18.479z"
		/>
	<path fill="#353535" d="M20.772,56.86c-0.41,1.798-0.837,3.667-0.664,6.453c1.367,4.849,2.982,8.509,4.922,11.201
		c0.454,0.625,1.011,1.339,1.713,1.913c1.005,0.823,2.437,1.312,3.815,1.312l0,0c1.389,0,2.578-0.488,3.345-1.389
		c0.854-0.989,1.167-2.416,0.935-4.235c-0.135-1.017-0.498-2.09-0.854-3.129c-0.356-1.034-0.724-2.101-0.854-3.119
		c-0.524-3.953,1.13-8.05,4.404-10.952c1.389-1.239,2.826-2.24,4.204-3.207c1.497-1.056,3.042-2.146,4.507-3.506
		c2.226-2.062,4.744-4.406,5.16-7.939v-0.011v-0.006c-0.265-1.67-0.773-3.389-2.632-4.616c-1.054-0.702-2.221-1.029-3.668-1.029
		c-1.238,0-2.508,0.239-3.858,0.487c-1.454,0.266-2.956,0.542-4.518,0.542c-0.384,0-0.762-0.017-1.124-0.044
		c-0.74-0.072-1.675-0.305-2.653-0.553c-1.319-0.327-2.686-0.67-3.767-0.67c-0.228,0-0.432,0.017-0.622,0.05
		c-1.459,0.227-3.004,1.521-4.188,2.621c-1.972,1.83-3.831,3.737-4.139,5.308c-0.119,0.614-0.082,1.598-0.006,2.311
		c0.108,1.084,0.34,2.002,0.557,2.888c0.383,1.581,0.783,3.217,0.589,5.832C21.281,54.645,21.038,55.728,20.772,56.86z
		 M20.859,47.522c-0.216-0.885-0.443-1.803-0.551-2.874c-0.076-0.715-0.114-1.688,0-2.29c0.303-1.554,2.156-3.45,4.118-5.274
		c1.178-1.09,2.712-2.372,4.15-2.604c0.183-0.027,0.383-0.038,0.61-0.038c1.075,0,2.437,0.337,3.75,0.669
		c0.983,0.243,1.918,0.476,2.659,0.547c0.368,0.033,0.746,0.05,1.135,0.05c1.567,0,3.074-0.276,4.528-0.553
		c1.351-0.243,2.621-0.481,3.848-0.481c1.432,0,2.588,0.327,3.636,1.018c1.832,1.217,2.329,2.908,2.594,4.572
		c-0.416,3.5-2.918,5.828-5.134,7.89c-1.47,1.354-3.01,2.438-4.5,3.489c-1.39,0.973-2.816,1.979-4.215,3.224
		c-3.296,2.914-4.955,7.032-4.431,11.013c0.136,1.023,0.502,2.09,0.859,3.131c0.356,1.033,0.724,2.106,0.849,3.118
		c0.238,1.796-0.076,3.201-0.918,4.18c-0.751,0.879-1.913,1.36-3.286,1.36l0,0c-1.362,0-2.772-0.486-3.772-1.294
		c-0.691-0.569-1.249-1.282-1.697-1.902c-1.94-2.682-3.544-6.336-4.912-11.174c-0.172-2.765,0.254-4.628,0.67-6.414
		c0.265-1.144,0.508-2.228,0.6-3.505C21.643,50.751,21.249,49.109,20.859,47.522z"/>
	<path fill="#353535" d="M25.291,56.673c0.076,0.326,0.124,0.658,0.184,1.022c0.194,1.271,0.427,2.727,1.702,3.411l0.011,0.006
		h0.011c1.551-0.11,2.528-1.525,3.566-3.019c0.373-0.53,0.751-1.083,1.162-1.564c2.286-2.704,4.863-4.495,7.354-6.231
		c1.751-1.222,3.41-2.377,4.874-3.776c0.47-0.237,0.789-0.652,1.092-1.051c0.232-0.298,0.47-0.618,0.784-0.861
		c1.34-1.715,1.783-3.722,1.129-5.104c-0.411-0.874-1.437-1.919-3.999-1.919c-0.346,0-0.708,0.022-1.081,0.056
		c-0.821,0.083-1.768,0.26-2.756,0.447c-1.103,0.204-2.351,0.438-3.61,0.575c-0.265,0.027-0.513,0.05-0.762,0.083
		c-3.36,0.342-5.387,0.564-7.408,2.996c-1.438,1.742-2.205,3.894-2.421,6.779c-0.13,1.847-0.027,3.87,0.065,5.65
		C25.236,55.069,25.28,55.915,25.291,56.673z M25.198,48.529c0.211-2.87,0.979-5.004,2.4-6.729c1.999-2.428,3.901-2.62,7.359-2.985
		c0.249-0.021,0.498-0.05,0.762-0.077c1.265-0.139,2.513-0.371,3.615-0.575c0.989-0.183,1.929-0.365,2.75-0.442
		c0.373-0.038,0.735-0.061,1.075-0.061c2.524,0,3.534,1.022,3.939,1.88c0.632,1.36,0.2,3.333-1.119,5.015
		c-0.312,0.249-0.556,0.563-0.794,0.868c-0.313,0.42-0.605,0.808-1.064,1.034l-0.011,0.005c-1.464,1.404-3.124,2.56-4.874,3.775
		c-2.497,1.742-5.069,3.534-7.365,6.249c-0.411,0.475-0.789,1.028-1.162,1.564c-1.027,1.476-1.994,2.875-3.507,2.985
		C25.96,60.366,25.75,59,25.544,57.685c-0.06-0.364-0.108-0.702-0.178-1.022c-0.011-0.752-0.06-1.593-0.103-2.488
		C25.172,52.394,25.063,50.37,25.198,48.529z"/>
	<path fill="#353535" d="M72.021,47.854c0.551,5.254,1.07,10.219,5.074,13.768c2.691,2.383,7.042,4.921,11.208,4.921l0,0
		c2.54,0,4.625-0.962,6.202-2.863c1.362-1.653,2.064-3.584,2.87-5.822c0.087-0.249,0.178-0.497,0.271-0.759
		c0.161-0.431,0.318-0.855,0.476-1.276c0.896-2.422,1.744-4.699,1.956-6.596c0.47-4.175-1.012-5.855-2.843-7.481
		c-2.853-2.526-6.565-2.714-10.499-2.919c-0.93-0.049-2.032-0.149-3.193-0.26c-1.832-0.172-3.901-0.359-5.636-0.359
		c-1.871,0-3.097,0.216-3.762,0.669c-2.788,1.891-2.453,6.485-2.188,8.366L72.021,47.854z M74.183,38.941
		c0.654-0.447,1.87-0.663,3.724-0.663c1.729,0,3.804,0.193,5.63,0.364c1.162,0.105,2.265,0.21,3.193,0.255
		c3.924,0.198,7.625,0.393,10.456,2.902c1.821,1.609,3.286,3.279,2.82,7.42c-0.21,1.88-1.059,4.158-1.95,6.574
		c-0.156,0.426-0.318,0.852-0.471,1.283c-0.097,0.249-0.188,0.503-0.274,0.757c-0.806,2.228-1.503,4.152-2.864,5.8
		c-1.557,1.886-3.62,2.842-6.144,2.842c-4.14,0-8.484-2.537-11.158-4.915c-3.988-3.521-4.502-8.476-5.048-13.712l-0.07-0.619
		C71.756,45.36,71.432,40.805,74.183,38.941z"/>
	<path fill="#353535" d="M75.848,48.717c0.479,4.534,0.891,8.448,4.479,11.351c1.665,1.354,4.675,2.937,7.652,2.937l0,0
		c1.48,0,2.729-0.393,3.717-1.172c2.8-2.218,4.016-6.829,4.21-10.102c0.222-3.782-1.135-7.104-3.626-8.875
		c-2.286-1.631-5.193-1.796-8.278-1.968c-0.676-0.033-1.345-0.071-2.016-0.071c-1.935,0-4.323,0.248-5.544,2.178
		c-0.702,1.465-0.659,3.186-0.61,4.843C75.836,48.136,75.842,48.424,75.848,48.717z M76.506,43.027
		c1.199-1.891,3.562-2.14,5.479-2.14c0.671,0,1.335,0.034,2.016,0.077c3.064,0.172,5.966,0.326,8.24,1.946
		c2.465,1.758,3.811,5.06,3.589,8.813c-0.189,3.262-1.4,7.851-4.184,10.052c-0.973,0.769-2.204,1.16-3.668,1.16l0,0
		c-2.956,0-5.95-1.581-7.614-2.929c-3.556-2.888-3.95-6.603-4.442-11.297c-0.004-0.287-0.01-0.575-0.026-0.874
		C75.857,46.185,75.814,44.476,76.506,43.027z"/>
	<path fill="#353535" d="M31.769,47.992l0.016,0.012c0.108,0.072,0.2,0.177,0.292,0.276c0.114,0.121,0.228,0.249,0.368,0.32
		l0.005,0.006h0.016c2.048-0.37,4.377-1.46,6.079-2.837c0.676-0.548,1.464-1.294,1.621-2.228l0.005-0.017l-0.011-0.017
		c-0.092-0.139-0.222-0.26-0.335-0.382c-0.092-0.088-0.178-0.171-0.259-0.266l-0.005-0.017h-0.016
		c-0.303-0.033-0.632-0.049-0.962-0.049c-1.784,0-4.215,0.552-5.674,2.096c-0.8,0.855-1.183,1.89-1.14,3.084V47.992z M32.963,44.94
		c1.438-1.531,3.848-2.073,5.62-2.073c0.324,0,0.643,0.017,0.94,0.05c0.081,0.095,0.168,0.182,0.249,0.266
		c0.119,0.11,0.232,0.227,0.319,0.359c-0.157,0.906-0.93,1.637-1.589,2.166c-1.691,1.372-4.004,2.456-6.036,2.826
		c-0.124-0.072-0.227-0.182-0.33-0.298c-0.092-0.101-0.184-0.199-0.292-0.282C31.807,46.792,32.175,45.78,32.963,44.94z"/>
	<path fill="#353535" d="M83.347,58.005c1.199,0.797,2.54,1.228,3.783,1.228l0,0c1.638,0,3.01-0.724,3.987-2.101
		c2.27-3.202,1.243-9.256-2.01-11.771c-0.881-0.691-2.389-1.509-4.544-1.509c-0.509,0-1.027,0.044-1.551,0.138
		c-2.275,0.394-3.459,2.234-3.421,5.313C79.624,51.642,80.159,55.888,83.347,58.005z M83.022,44.062
		c0.524-0.089,1.038-0.133,1.541-0.133c2.134,0,3.626,0.807,4.506,1.487c1.535,1.194,2.643,3.234,3.037,5.611
		c0.39,2.323-0.005,4.584-1.054,6.066c-0.957,1.354-2.318,2.062-3.923,2.062l0,0c-1.227,0-2.562-0.426-3.745-1.211
		c-3.155-2.096-3.686-6.314-3.718-8.642C79.624,46.262,80.791,44.448,83.022,44.062z"/>
	<path fill="#353535" d="M9.907,78.645c0.296,0.554,0.583,1.084,0.923,1.521l0.017,0.017c0.47,0.625,1.27,1.665,2.383,1.493
		c1.2-0.183,2.783-1.642,2.497-3.787c-0.227-1.715-1.351-2.97-3.539-3.947c-0.141-0.062-0.282-0.128-0.427-0.188
		c-1.054-0.454-2.053-0.885-2.513-1.913c-0.476-2.034-0.567-4.777-0.67-7.69c-0.082-2.411-0.168-4.91-0.486-7.039
		c-0.611-4.107-2.664-6.552-6.279-7.485c-0.313-0.084-0.648-0.161-1-0.21v0.076c0.346,0.05,0.675,0.122,0.983,0.205
		c3.583,0.918,5.62,3.351,6.226,7.425c0.313,2.129,0.4,4.623,0.486,7.034c0.097,2.913,0.194,5.66,0.67,7.713
		c0.476,1.062,1.486,1.492,2.556,1.95c0.146,0.067,0.286,0.123,0.427,0.189c2.162,0.961,3.269,2.199,3.49,3.892
		c0.282,2.096-1.259,3.522-2.431,3.699c-1.07,0.165-1.854-0.852-2.318-1.455l-0.016-0.016c-0.335-0.442-0.621-0.962-0.919-1.516
		c-0.935-1.729-1.902-3.521-4.668-3.052c-1.308,0.216-2.778,0.929-4.485,2.162v0.094C2.53,76.566,4,75.848,5.308,75.632
		C8.025,75.173,8.982,76.942,9.907,78.645z"/>
	<path fill="#353535" d="M2.606,68.837c1.599-1.803,2.453-4.468,2.345-7.32c-0.108-2.748-1.113-5.258-2.691-6.724
		c-0.47-0.343-0.962-0.575-1.448-0.696v0.072c0.475,0.127,0.951,0.353,1.399,0.674c1.567,1.459,2.561,3.953,2.669,6.674
		c0.108,2.83-0.74,5.484-2.324,7.275c-0.529,0.592-1.124,1.09-1.745,1.532v0.088C1.455,69.965,2.066,69.456,2.606,68.837z"/>
	<path fill="#353535" d="M67.53,69.317c-0.07-0.492-0.292-1.084-0.475-1.554c-1.524-3.881-5.101-7.95-7.7-10.25
		c-1.784-1.576-3.264-2.5-4.398-2.731c-0.244-0.056-0.508-0.083-0.784-0.083c-3.102,0-6.911,3.229-7.149,6.06
		c0.011,0.138,0.043,0.282,0.081,0.415c0.044,0.209,0.098,0.42,0.076,0.647v0.011l0.005,0.005c1.103,2.654,2.361,5.158,3.729,7.452
		c0.616,1.041,1.238,2.036,2.054,2.871c1.972,2.018,5.409,3.434,8.337,3.434l0,0c1.622,0,2.978-0.421,4.031-1.234
		C67.098,72.994,67.838,71.297,67.53,69.317z M61.306,75.516L61.306,75.516c-2.913,0-6.322-1.404-8.284-3.411
		c-0.811-0.824-1.432-1.819-2.048-2.848c-1.368-2.295-2.616-4.793-3.718-7.436c0.016-0.238-0.033-0.46-0.086-0.664
		c-0.032-0.133-0.065-0.271-0.082-0.398c0.244-2.798,4.015-5.982,7.084-5.982c0.27,0,0.53,0.022,0.772,0.072
		c1.124,0.237,2.594,1.15,4.366,2.721c2.588,2.3,6.155,6.353,7.673,10.223c0.184,0.464,0.405,1.05,0.481,1.536
		c0.297,1.952-0.438,3.628-2.178,4.972C64.25,75.102,62.91,75.516,61.306,75.516z"/>
	<path fill="#353535" d="M60.749,63.104c-1.562-1.46-3.42-2.517-4.863-2.748c-0.271-0.051-0.529-0.072-0.778-0.072
		c-0.896,0-1.615,0.287-2.145,0.852c-0.622,0.658-0.929,1.692-0.881,2.908c0.633,2.781,1.27,5.042,3.183,6.635
		c1.205,1.017,3.064,1.676,4.717,1.676l0,0c1.988,0,3.366-0.936,3.777-2.555c0.119-0.481,0.097-1.178,0.026-1.658
		C63.548,66.525,62.44,64.69,60.749,63.104z M63.683,69.777c-0.399,1.592-1.745,2.498-3.701,2.498l0,0
		c-1.643,0-3.475-0.651-4.674-1.653c-1.891-1.581-2.523-3.825-3.155-6.591c-0.049-1.188,0.259-2.199,0.864-2.853
		c0.508-0.542,1.216-0.818,2.091-0.818c0.238,0,0.498,0.022,0.768,0.067c2.994,0.491,7.333,4.323,7.846,7.724
		C63.786,68.621,63.808,69.307,63.683,69.777z"/>
	<path fill="#353535" d="M78.17,75.72l-0.01-0.005l-0.017-0.006c-0.2-0.027-0.389-0.039-0.573-0.039
		c-0.416,0-0.815,0.066-1.253,0.194c-2.287,0.68-4.588,2.709-5.35,4.711c-0.541,1.41-0.313,2.969-0.097,4.479
		c0.2,1.398,0.389,2.709,0.011,3.864c-0.589,1.78-2.15,2.902-3.664,3.986c-1.6,1.15-3.253,2.333-3.658,4.29
		c-0.243,1.389,0.113,2.704,1.016,3.799c1.275,1.554,3.615,2.565,5.955,2.565l0,0c1.529,0,2.869-0.42,3.879-1.199
		c0.794-0.614,1.346-1.46,1.924-2.351l0.093-0.144c0.572-1.161,0.762-2.554,0.967-4.042c0.178-1.288,0.362-2.62,0.811-3.942
		c0.265-0.779,0.545-1.437,0.815-2.062c0.827-1.93,1.535-3.604,1.194-7.713C80.018,79.751,79.613,76.893,78.17,75.72z
		 M78.948,89.786c-0.271,0.636-0.551,1.288-0.816,2.073c-0.442,1.326-0.626,2.665-0.81,3.958c-0.206,1.477-0.4,2.864-0.962,4.015
		l-0.081,0.133c-0.605,0.929-1.124,1.725-1.913,2.339c-0.994,0.773-2.324,1.177-3.836,1.177c-2.313,0-4.636-0.995-5.9-2.531
		c-0.886-1.084-1.238-2.378-1-3.743c0.4-1.925,1.972-3.046,3.626-4.235c1.529-1.095,3.096-2.229,3.69-4.025
		c0.389-1.177,0.2-2.499,0-3.897c-0.222-1.504-0.443-3.059,0.092-4.445c0.751-1.985,3.031-3.992,5.295-4.667
		c0.438-0.127,0.826-0.188,1.237-0.188c0.179,0,0.362,0.011,0.558,0.039c1.42,1.161,1.825,3.991,2.021,6.324
		C80.479,86.203,79.775,87.861,78.948,89.786z"/>
	<path fill="#353535" d="M11.679,90.378c-0.352-0.31-0.746-0.465-1.173-0.465c-0.724,0-1.523,0.465-2.205,1.271
		c-0.832,0.995-1.297,2.289-1.156,3.219c0.33,1.581,1.74,2.41,2.956,2.41l0,0c0.854,0,1.594-0.382,2.081-1.062
		C13.17,94.358,12.895,91.45,11.679,90.378z M12.127,95.702c-0.476,0.669-1.194,1.034-2.026,1.034l0,0
		c-1.189,0-2.561-0.808-2.885-2.35c-0.135-0.902,0.319-2.174,1.146-3.157c0.659-0.791,1.448-1.239,2.145-1.239
		c0.411,0,0.789,0.145,1.129,0.442C12.83,91.483,13.094,94.342,12.127,95.702z"/>
	<path fill="#353535" d="M37.983,100.108c-0.054-0.111-0.119-0.227-0.146-0.354l-0.006-0.011l-0.005-0.012
		c-0.281-0.204-0.611-0.319-0.952-0.319c-0.524,0-1.059,0.254-1.442,0.68c-0.356,0.398-0.53,0.891-0.492,1.382l0.005,0.012
		c0.254,0.52,0.686,0.808,1.237,0.808l0,0c0.854,0,1.881-0.758,1.972-1.765v-0.006v-0.004
		C38.129,100.368,38.054,100.236,37.983,100.108z M36.184,102.215L36.184,102.215c-0.513,0-0.935-0.271-1.167-0.757
		c-0.043-0.471,0.124-0.936,0.47-1.322c0.367-0.404,0.886-0.652,1.388-0.652c0.319,0,0.627,0.11,0.892,0.304
		c0.032,0.128,0.097,0.243,0.156,0.354c0.065,0.133,0.136,0.249,0.157,0.381C37.989,101.491,37.005,102.215,36.184,102.215z"/>
	<path fill="#353535" d="M135.558,1.561c1.745,0.868,3.798,0.957,5.5,0.243c0.854-0.365,1.578-0.918,2.129-1.609h-0.086
		c-0.535,0.664-1.228,1.189-2.063,1.538c-1.687,0.713-3.725,0.624-5.447-0.233c-0.562-0.276-1.092-0.713-1.6-1.305h-0.098
		C134.417,0.825,134.974,1.272,135.558,1.561z"/>
	<path fill="#353535" d="M73.658,4.596c0.681,0.492,1.329,1.018,1.956,1.521c1.519,1.216,2.951,2.355,4.528,2.897
		c1.767,0.901,3.458,1.354,5.069,1.354c1.334,0,2.615-0.31,3.82-0.935c3.555-1.831,5.56-5.828,6.327-9.239h-0.075
		c-0.768,3.385-2.751,7.359-6.285,9.173c-2.643,1.36-5.614,1.216-8.829-0.421c-1.572-0.536-2.999-1.68-4.512-2.896
		c-0.627-0.498-1.276-1.018-1.962-1.515c-0.735-0.536-1.497-1.057-2.237-1.554c-1.34-0.913-2.653-1.802-3.81-2.787H67.53
		c1.178,1.013,2.518,1.919,3.891,2.848C72.162,3.546,72.924,4.06,73.658,4.596z"/>
	<path fill="#353535" d="M99.196,5.984c0.481,1.193,1.539,1.774,3.236,1.774c0.859,0,1.751-0.15,2.47-0.271h0.021
		c0.156-0.027,0.324-0.039,0.503-0.039c0.675,0,1.366,0.205,2.031,0.403c0.34,0.105,0.702,0.211,1.049,0.282
		c0.28,0.066,0.556,0.116,0.832,0.178c1.14,0.227,2.323,0.464,3.394,0.967c0.421,0.199,0.854,0.394,1.275,0.575
		c2.085,0.923,4.241,1.88,5.641,3.738c0.087,0.115,0.163,0.231,0.243,0.348c0.978,1.482,1.827,3.074,2.638,4.617
		c0.918,1.741,1.869,3.527,3.015,5.164c1.108,1.598,2.6,3.361,4.042,5.069c0.503,0.598,0.973,1.161,1.432,1.715
		c2.292,2.774,4.453,5.391,8.44,5.391h0.006c1.021,0,2.103-0.166,3.317-0.498c3.453-0.951,9.549-3.328,11.635-8.481
		c0.551-1.365,0.919-3.272,1.308-5.286c0.297-1.521,0.604-3.096,0.994-4.406v-0.249c-0.428,1.36-0.751,3.03-1.059,4.639
		c-0.395,2.019-0.763,3.915-1.309,5.275c-2.075,5.131-8.148,7.485-11.585,8.438c-1.211,0.336-2.291,0.497-3.302,0.497h-0.006
		c-3.95,0-6.105-2.604-8.38-5.369c-0.46-0.553-0.936-1.116-1.438-1.708c-1.437-1.708-2.929-3.478-4.041-5.064
		c-1.136-1.631-2.087-3.428-3.005-5.158c-0.816-1.543-1.664-3.141-2.643-4.622c-0.075-0.116-0.162-0.243-0.248-0.354
		c-1.41-1.868-3.572-2.83-5.663-3.76c-0.427-0.188-0.859-0.381-1.275-0.575c-1.081-0.509-2.264-0.746-3.41-0.979
		c-0.28-0.055-0.556-0.11-0.832-0.171c-0.34-0.077-0.696-0.183-1.043-0.282c-0.669-0.199-1.361-0.409-2.053-0.409
		c-0.179,0-0.356,0.017-0.514,0.039l-0.032,0.005c-0.709,0.122-1.594,0.266-2.448,0.266c-1.659,0-2.702-0.564-3.166-1.719
		c-0.487-1.189-0.324-3.207-0.179-4.993c0.021-0.271,0.044-0.525,0.06-0.774h-0.076c-0.016,0.249-0.032,0.503-0.054,0.769
		C98.872,2.755,98.715,4.783,99.196,5.984z"/>
	<path fill="#353535" d="M129.084,2.462c2.145,2.975,5.954,4.743,10.185,4.743c1.055,0,2.076-0.11,3.038-0.326
		c3.761-0.852,4.965-3.478,5.501-6.685h-0.07c-0.168,1.019-0.399,1.969-0.762,2.826c-0.87,2.057-2.361,3.261-4.68,3.786
		c-0.963,0.217-1.979,0.327-3.027,0.327c-4.208,0-7.991-1.764-10.126-4.717c-0.237-0.631-0.438-1.394-0.632-2.223h-0.075
		c0.194,0.841,0.404,1.614,0.643,2.262L129.084,2.462z"/>
	<path fill="#353535" d="M108.571,4.016c1.913,0.281,3.739,0.862,5.495,1.427c1.136,0.364,2.312,0.74,3.507,1.033
		c0.762,0.188,1.524,0.337,2.2,0.442c0.691,0.105,1.302,0.16,1.811,0.16l0,0c1.048,0,1.669-0.222,1.863-0.663
		c0.535-1.179,0.945-3.738,0.968-6.221h-0.071c-0.021,2.472-0.432,5.015-0.955,6.192c-0.185,0.409-0.795,0.614-1.805,0.614
		c-0.503,0-1.108-0.05-1.801-0.155c-0.675-0.104-1.432-0.254-2.193-0.442c-1.194-0.293-2.361-0.669-3.495-1.033
		c-1.769-0.564-3.594-1.15-5.518-1.433c-1.892-0.276-3.399-1.604-4.286-3.743h-0.081C105.108,2.378,106.642,3.728,108.571,4.016z"/>
	<path fill="#353535" d="M150.714,2.107c-0.097,2.721-0.184,5.076-1.95,6.464c-1.837,1.454-5.047,1.869-7.393,2.167
		c-0.231,0.033-0.465,0.066-0.681,0.094c-0.4,0.056-0.826,0.083-1.259,0.083l0,0c-2.389,0-4.934-0.823-7.397-1.614
		c-2.205-0.702-4.479-1.438-6.608-1.564h-0.006l-0.006,0.006c-1.215,0.354-1.518,1.681-1.398,2.803
		c0.345,4.385,1.853,7.973,5.219,12.39c0.676,0.885,1.313,1.787,1.924,2.66c1.048,1.471,2.032,2.87,3.183,4.186
		c1.725,1.984,3.886,2.979,6.431,2.979l0,0c2.95,0,6.269-1.403,9.104-3.864c2.925-3.24,3.362-7.531,3.562-11.649
		c0.017-0.321,0.022-0.653,0.032-1.012c0.044-1.653,0.093-3.716,0.887-4.732c0.697-0.896,1.519-1.587,2.361-2.195V9.218
		c-0.865,0.619-1.702,1.315-2.421,2.245c-0.805,1.028-0.854,3.102-0.902,4.766c-0.011,0.359-0.016,0.696-0.032,1.012
		c-0.194,4.104-0.632,8.388-3.54,11.605c-2.82,2.443-6.116,3.849-9.051,3.849c-2.523,0-4.674-1.002-6.376-2.958
		c-1.146-1.321-2.135-2.71-3.177-4.191c-0.611-0.868-1.249-1.764-1.924-2.653c-3.356-4.407-4.864-7.989-5.204-12.358
		c-0.119-1.084,0.167-2.377,1.34-2.72c2.112,0.127,4.383,0.852,6.582,1.56c2.47,0.791,5.02,1.614,7.419,1.614l0,0
		c0.433,0,0.864-0.033,1.27-0.083c0.217-0.033,0.448-0.062,0.681-0.089c2.351-0.304,5.577-0.724,7.419-2.183
		c1.8-1.416,1.887-3.777,1.989-6.525c0.021-0.569,0.037-1.16,0.075-1.752c0.012-0.056,0.012-0.105,0.017-0.161h-0.075
		c0,0.056-0.006,0.1-0.006,0.155C150.758,0.947,150.736,1.532,150.714,2.107z"/>
	<path fill="#353535" d="M151.838,38.737l-0.01,0.005c-0.498,0.403-1.249,1.018-1.168,1.864l0.006,0.017l0.01,0.011
		c0.163,0.127,0.304,0.276,0.428,0.42l0.005,0.011h0.011c0.914,0.188,1.849,0.288,2.778,0.288l0,0c0.95,0,1.896-0.105,2.82-0.299
		v-0.078c-0.924,0.2-1.87,0.299-2.82,0.299c-0.925,0-1.848-0.094-2.751-0.282c-0.124-0.138-0.254-0.281-0.41-0.408
		c-0.07-0.797,0.626-1.366,1.134-1.786l0.012-0.011c0.881-0.714,2.031-1.256,3.258-1.824c0.53-0.244,1.06-0.499,1.578-0.764v-0.083
		c-0.529,0.271-1.075,0.531-1.61,0.774C153.881,37.466,152.719,38.008,151.838,38.737z"/>
	<path fill="#353535" d="M154.983,0.819c0.081,1.022,0.892,1.93,1.734,1.93V2.672c-0.811,0-1.584-0.868-1.659-1.858
		c-0.021-0.215-0.021-0.42-0.005-0.619h-0.07C154.967,0.394,154.962,0.604,154.983,0.819z"/>
	<path fill="#353535" d="M144.905,14.509c-0.48,0-0.983,0.056-1.48,0.155c-1.103,0.221-2.28,0.575-3.534,0.95
		c-1.399,0.421-2.858,0.863-4.242,1.106c-1.28,0.237-1.837,0.818-1.69,1.785v0.006c0.448,0.969,0.794,2.046,1.161,3.185
		c0.789,2.488,1.61,5.06,3.604,6.397c0.939,0.625,2.086,0.956,3.312,0.956l0,0c1.994,0,4.031-0.851,5.469-2.283
		c1.178-1.184,2.037-3.106,2.301-5.147c0.282-2.15-0.14-4.191-1.16-5.595C147.964,15.09,146.526,14.509,144.905,14.509z
		 M147.45,26.711c-1.421,1.422-3.447,2.268-5.414,2.268c-1.216,0-2.345-0.326-3.275-0.951c-1.977-1.321-2.788-3.876-3.582-6.353
		c-0.362-1.139-0.702-2.217-1.151-3.185c-0.135-0.929,0.379-1.471,1.633-1.691c1.383-0.255,2.847-0.687,4.257-1.112
		c1.243-0.376,2.428-0.729,3.519-0.951c0.502-0.099,0.994-0.148,1.47-0.148c1.6,0,3.011,0.569,3.68,1.486
		C150.807,19.115,149.779,24.384,147.45,26.711z"/>
	<path fill="#353535" d="M62.127,47.435c0.367,0.712,0.746,1.448,1.059,2.178c0.281,0.624,0.562,1.283,0.837,1.924
		c1.681,3.91,3.415,7.956,5.944,11.202c0.967,1.243,2.14,2.433,3.269,3.594c1.086,1.1,2.107,2.135,2.923,3.186
		c0.4,0.497,0.74,1.045,1.069,1.575c0.697,1.105,1.357,2.151,2.454,2.869l0.011,0.006l0.313-0.022
		c4.193-0.254,7.819-0.476,11.683-1.194c2.745-0.509,4.69-1.057,5.766-1.62c2.222-1.166,2.826-3.25,3.475-5.463
		c0.07-0.226,0.141-0.458,0.205-0.69c0.94-3.129,2.303-6.303,5.83-8.288l0.012-0.017c0.026-0.033,0.055-0.066,0.087-0.1
		c0.729-0.393,1.458-0.791,2.193-1.188c1.275-0.686,2.593-1.404,3.896-2.09c0.562-0.299,1.119-0.608,1.67-0.901
		c0.854-0.47,1.74-0.951,2.615-1.398c0.605-0.299,1.141-0.714,1.67-1.111c0.129-0.1,0.265-0.204,0.395-0.305
		c0.486-0.365,1.026-0.735,1.643-0.979c1.156-0.465,2.438-0.52,3.669-0.58c1.07-0.045,2.173-0.1,3.21-0.41
		c0.989-0.293,1.676-0.553,2.248-1.414c1.854-2.766,0.913-4.833-0.605-7.448c-1.599-2.742-3.545-4.882-5.787-6.353
		c-0.4-0.266-0.838-0.476-1.259-0.675c-0.471-0.227-0.952-0.459-1.384-0.769c-0.503-0.354-0.988-0.741-1.458-1.117
		c-0.385-0.303-0.773-0.618-1.174-0.917c-1.626-1.2-3.571-2.533-5.754-3.318c-0.725-0.26-1.583-0.309-2.178-0.309
		c-0.6,0-1.227,0.055-1.762,0.16c-0.676,0.132-1.222,0.437-1.8,0.763c-0.243,0.139-0.503,0.282-0.768,0.415
		c-0.291,0.132-0.594,0.237-0.886,0.342c-0.384,0.134-0.768,0.271-1.124,0.476c-0.887,0.499-1.746,1.078-2.572,1.643
		c-0.8,0.542-1.626,1.101-2.476,1.587c-4.009,2.306-7.445,3.605-10.791,4.103c-0.999,0.149-2.015,0.227-3.01,0.227
		c-1.247,0-2.49-0.116-3.696-0.349c-0.939-0.177-1.907-0.453-2.847-0.724c-1.648-0.47-3.346-0.956-5.009-0.956
		c-0.919,0-1.746,0.138-2.529,0.437c-1.588,0.597-3.004,1.835-4.506,3.151c-0.767,0.669-1.556,1.36-2.416,2.018
		c-0.194,0.145-0.438,0.315-0.713,0.508c-0.61,0.443-1.372,0.985-2.026,1.55c-1.216,1.066-1.55,2.039-1.15,3.372
		C60.927,45.106,61.505,46.239,62.127,47.435z M61.787,40.699c0.653-0.568,1.411-1.104,2.026-1.548
		c0.275-0.193,0.513-0.364,0.708-0.514c0.864-0.652,1.659-1.35,2.426-2.019c1.491-1.31,2.901-2.544,4.479-3.14
		c0.778-0.288,1.6-0.438,2.507-0.438c1.654,0,3.345,0.486,4.988,0.963c0.945,0.271,1.913,0.547,2.858,0.729
		c1.21,0.227,2.453,0.343,3.706,0.343c0.995,0,2.017-0.072,3.016-0.227c3.366-0.498,6.803-1.809,10.823-4.114
		c0.849-0.486,1.676-1.05,2.481-1.587c0.82-0.563,1.685-1.139,2.561-1.637c0.356-0.198,0.741-0.342,1.113-0.47
		c0.297-0.105,0.6-0.21,0.892-0.354c0.27-0.127,0.529-0.277,0.772-0.409c0.578-0.321,1.119-0.631,1.777-0.757
		c0.536-0.105,1.156-0.167,1.752-0.167c0.589,0,1.437,0.062,2.155,0.315c2.168,0.779,4.118,2.112,5.733,3.312
		c0.395,0.293,0.794,0.602,1.173,0.911c0.476,0.371,0.962,0.758,1.458,1.117c0.443,0.311,0.931,0.548,1.4,0.774
		c0.416,0.198,0.848,0.404,1.243,0.67c2.237,1.47,4.177,3.599,5.765,6.324c1.509,2.599,2.438,4.649,0.611,7.376
		c-0.562,0.846-1.237,1.095-2.205,1.383c-1.031,0.313-2.134,0.358-3.193,0.414c-1.242,0.05-2.523,0.11-3.701,0.58
		c-0.616,0.243-1.156,0.619-1.648,0.984c-0.141,0.1-0.27,0.204-0.399,0.304c-0.524,0.398-1.064,0.813-1.653,1.111
		c-0.887,0.442-1.768,0.924-2.621,1.389c-0.546,0.298-1.113,0.613-1.675,0.906c-1.303,0.69-2.621,1.398-3.891,2.09
		c-0.735,0.404-1.465,0.802-2.199,1.194l-0.012,0.006c-0.026,0.027-0.064,0.065-0.092,0.104c-3.545,2.008-4.906,5.192-5.852,8.333
		c-0.07,0.231-0.141,0.464-0.205,0.69c-0.643,2.195-1.255,4.269-3.442,5.413c-1.076,0.569-3.005,1.117-5.745,1.62
		c-3.857,0.719-7.483,0.939-11.676,1.193l-0.287,0.017c-1.08-0.707-1.734-1.735-2.426-2.836c-0.33-0.53-0.677-1.078-1.07-1.581
		c-0.827-1.051-1.848-2.096-2.929-3.19c-1.129-1.161-2.307-2.355-3.264-3.594c-2.523-3.239-4.264-7.281-5.939-11.179
		c-0.275-0.643-0.557-1.3-0.832-1.925c-0.324-0.729-0.703-1.472-1.07-2.185c-0.611-1.199-1.189-2.316-1.523-3.416
		C60.273,42.69,60.593,41.738,61.787,40.699z"/>
	<path fill="#353535" d="M68.52,52.449l0.141,0.547c1.464,5.573,3.636,8.879,8.023,12.169l0.104,0.084
		c2.361,1.769,4.404,3.306,6.673,4.04c1.136,0.377,2.524,0.57,4.011,0.57c0.004,0,0.004,0,0.004,0c1.974,0,3.983-0.354,5.372-0.939
		c3.669-1.554,5.015-4.838,6.56-8.652c2.032-4.994,5.594-11.451,10.992-13.873c0.978-0.437,1.923-0.525,2.923-0.619
		c0.383-0.033,0.783-0.077,1.188-0.133c1.529-0.221,3.237-0.541,5.231-0.984c0.28-0.055,0.562-0.121,0.842-0.188
		c1.46-0.332,3.389-1.271,4.021-2.819c0.47-1.146,0.4-2.19-0.188-3.102c-1.762-2.71-7.83-3.639-10.32-3.645h-0.05
		c-1.103,0-2.231,0.116-3.322,0.232c-0.622,0.066-1.26,0.139-1.876,0.177c-1.049,0.077-1.901,0.382-2.955,1.057
		c-1.087,0.696-2.254,1.028-3.664,1.028c-1.054,0-2.123-0.177-3.253-0.36c-0.341-0.061-0.697-0.115-1.054-0.171
		c-1.48-0.221-3.063-0.32-4.999-0.32c-1.199,0-2.409,0.038-3.576,0.077c-1.162,0.033-2.356,0.072-3.535,0.072
		c-2.145,0-3.874-0.133-5.463-0.415c-0.465-0.089-0.967-0.21-1.502-0.338c-1.146-0.282-2.442-0.602-3.744-0.602
		c-0.719,0-1.362,0.088-1.967,0.276c-3.01,0.929-5.528,4.693-5.993,7.636c-0.173,1.1-0.146,2.228,0.076,3.549
		C67.563,48.816,68.028,50.58,68.52,52.449z M67.217,43.266c0.459-2.92,2.95-6.651,5.933-7.575c0.61-0.183,1.243-0.276,1.951-0.276
		c1.296,0,2.588,0.315,3.728,0.597c0.53,0.134,1.038,0.255,1.509,0.344c1.588,0.287,3.323,0.414,5.473,0.414
		c1.179,0,2.373-0.033,3.535-0.071c1.167-0.039,2.377-0.078,3.576-0.078c1.924,0,3.513,0.104,4.987,0.321
		c0.357,0.06,0.714,0.115,1.054,0.171c1.136,0.183,2.205,0.354,3.265,0.354c1.421,0,2.604-0.326,3.707-1.028
		c1.043-0.67,1.886-0.969,2.918-1.046c0.615-0.049,1.254-0.11,1.874-0.177c1.087-0.115,2.222-0.232,3.318-0.232h0.05
		c2.479,0.006,8.511,0.924,10.255,3.605c0.578,0.89,0.644,1.913,0.184,3.041c-0.621,1.521-2.523,2.443-3.966,2.775
		c-0.276,0.061-0.557,0.121-0.838,0.188c-1.993,0.437-3.701,0.757-5.23,0.978c-0.4,0.056-0.8,0.095-1.184,0.128
		c-1.005,0.1-1.961,0.188-2.945,0.63c-5.425,2.428-8.99,8.902-11.033,13.911c-1.54,3.792-2.876,7.071-6.518,8.608
		c-1.383,0.586-3.377,0.935-5.345,0.935h-0.004c-1.481,0-2.858-0.194-3.988-0.559c-2.259-0.73-4.291-2.262-6.657-4.036l-0.104-0.083
		c-4.365-3.278-6.532-6.568-7.991-12.125l-0.141-0.548c-0.498-1.868-0.962-3.638-1.297-5.64
		C67.066,45.477,67.044,44.354,67.217,43.266z"/>
	<path fill="#353535" d="M150.114,51.094l-0.011,0.017c-0.167,0.311-0.33,0.575-0.476,0.808c-0.508,0.835-0.81,1.344-0.967,2.727
		c-0.119,1.095-0.076,2.216-0.032,3.306c0.049,1.282,0.103,2.609-0.114,3.92c-0.745,4.633-4.35,9.41-8.386,11.108
		c-0.39,0.16-0.925,0.37-1.292,0.441c-0.292,0.05-0.567,0.084-0.827,0.084l0,0c-2.371,0-2.917-2.389-3.441-4.695
		c-0.124-0.514-0.243-1.045-0.384-1.537c-0.54-1.896-1.27-3.151-2.355-4.075c-1.098-0.917-2.572-1.515-4.782-1.934
		c-0.897-0.167-1.725-0.249-2.523-0.249c-1.541,0-3.005,0.293-4.913,0.979c-0.085,0.027-0.161,0.055-0.242,0.088
		c-1.06,0.37-1.962,0.691-2.6,1.703c-1.222,1.957-2.215,5.12-1.745,7.358c0.459,2.195,2.016,2.638,3.658,3.092
		c0.318,0.088,0.638,0.182,0.962,0.281c0.502,0.172,0.902,0.343,1.254,0.548c2.485,1.426,5.225,2.72,8.64,4.069
		c2.896,1.145,4.302,3.665,5.658,6.087c1.323,2.355,2.686,4.794,5.403,5.955c0.416,0.177,0.881,0.271,1.389,0.271l0,0
		c0.601,0,1.265-0.133,1.979-0.387c1.939-0.691,3.674-2.819,4.971-4.595c2.031-2.787,4.556-6.253,7.543-8.48
		c0.082-0.056,0.157-0.111,0.238-0.167v-0.094c-0.092,0.066-0.184,0.133-0.281,0.205c-2.993,2.228-5.522,5.699-7.56,8.492
		c-1.285,1.769-3.016,3.887-4.934,4.572c-0.708,0.249-1.367,0.376-1.956,0.376l0,0c-0.497,0-0.95-0.089-1.361-0.26
		c-2.691-1.156-4.053-3.577-5.366-5.928c-1.361-2.438-2.782-4.959-5.7-6.114c-3.41-1.349-6.15-2.643-8.63-4.069
		c-0.352-0.204-0.757-0.382-1.27-0.548c-0.314-0.105-0.644-0.192-0.957-0.282c-1.627-0.458-3.16-0.89-3.609-3.04
		c-0.465-2.223,0.523-5.357,1.74-7.305c0.615-0.983,1.513-1.31,2.555-1.67c0.082-0.032,0.163-0.06,0.249-0.087
		c1.896-0.692,3.356-0.979,4.886-0.979c0.794,0,1.615,0.083,2.501,0.248c4.264,0.802,6.052,2.307,7.09,5.961
		c0.141,0.486,0.265,1.018,0.378,1.526c0.536,2.338,1.092,4.749,3.518,4.749l0,0c0.266,0,0.546-0.022,0.838-0.077
		c0.373-0.072,0.919-0.281,1.308-0.448c2-0.841,3.95-2.443,5.501-4.518c1.529-2.039,2.566-4.4,2.935-6.646
		c0.205-1.315,0.157-2.648,0.108-3.931c-0.044-1.09-0.087-2.211,0.037-3.301c0.146-1.365,0.454-1.869,0.957-2.698
		c0.135-0.227,0.297-0.492,0.475-0.802c1.422-1.184,3.112-1.791,5.016-1.791c0.502,0,1.01,0.044,1.534,0.132v-0.076
		c-0.524-0.083-1.032-0.128-1.534-0.128C153.26,49.286,151.558,49.895,150.114,51.094z"/>
	<path fill="#353535" d="M152.698,56.552c-0.374,1.11-0.443,2.261-0.525,3.588c-0.026,0.459-0.053,0.939-0.103,1.459
		c-0.172,2.014-0.551,4.087-0.924,6.093c-0.362,1.985-0.708,3.86-0.772,5.336v0.017l0.016,0.011
		c0.228,0.172,0.471,0.338,0.757,0.338c0.055,0,0.107-0.006,0.156-0.022l0.012-0.005c0.724-0.426,1.496-0.813,2.248-1.188
		c1.069-0.531,2.155-1.073,3.155-1.765v-0.088c-1.006,0.702-2.107,1.249-3.184,1.786c-0.75,0.375-1.528,0.763-2.252,1.193
		c-0.044,0.011-0.087,0.011-0.125,0.011c-0.265,0-0.497-0.148-0.707-0.304c0.064-1.465,0.404-3.328,0.768-5.308
		c0.372-2.007,0.756-4.08,0.929-6.099c0.048-0.52,0.076-1.001,0.097-1.459c0.081-1.327,0.151-2.467,0.524-3.572
		c0.509-1.521,1.745-2.51,3.15-2.51c0.265,0,0.535,0.039,0.8,0.105v-0.072c-0.265-0.066-0.535-0.1-0.8-0.1
		C154.486,53.997,153.222,54.997,152.698,56.552z"/>
	<path fill="#353535" d="M124.755,66.531c-1.361,0-2.739,0.686-2.75,2.217v0.011c0.421,1.505,2.458,3.335,4.23,3.335l0,0
		c0.443,0,0.838-0.117,1.185-0.338c0.496-0.338,0.815-0.835,0.923-1.442c0.141-0.785-0.091-1.726-0.589-2.411
		C127.149,67.062,125.993,66.531,124.755,66.531z M128.273,70.297c-0.103,0.585-0.417,1.072-0.897,1.393
		c-0.324,0.222-0.708,0.332-1.141,0.332c-1.745,0-3.744-1.797-4.16-3.273c0.017-1.481,1.356-2.14,2.68-2.14
		c1.217,0,2.345,0.509,2.945,1.339C128.182,68.615,128.408,69.534,128.273,70.297z"/>
	<path fill="#353535" d="M148.51,75.715l-0.016-0.006c-0.131-0.05-0.276-0.072-0.423-0.072c-0.61,0-1.27,0.394-1.901,0.77
		c-0.238,0.138-0.481,0.282-0.719,0.403c-0.136,0.072-0.271,0.139-0.416,0.21c-2.086,1.045-4.938,2.482-4.739,5.894
		c0.286,1.062,1.151,2.135,2.438,2.135l0,0c0.113,0,0.237-0.012,0.367-0.033c2.334-0.99,3.729-3.76,4.69-6.077l0.07-0.165
		c0.432-1.039,0.919-2.206,0.653-3.041L148.51,75.715z M147.797,78.739l-0.07,0.171c-0.957,2.294-2.346,5.06-4.647,6.032
		c-0.119,0.017-0.232,0.027-0.346,0.027l0,0c-1.243,0-2.086-1.045-2.367-2.067c-0.199-3.355,2.637-4.777,4.701-5.816
		c0.141-0.072,0.286-0.138,0.416-0.21c0.237-0.116,0.481-0.266,0.725-0.404c0.621-0.375,1.27-0.757,1.863-0.757
		c0.131,0,0.26,0.017,0.385,0.055C148.699,76.577,148.218,77.728,147.797,78.739z"/>
	<path fill="#353535" d="M122.869,101.883c-0.687-0.646-1.378-0.983-2.048-0.983c-1.584,0-2.637,1.852-2.858,3.676
		c-0.168,1.389-0.13,2.881,0.103,4.114c0.228,1.211,0.702,1.819,1.686,2.167c0.222,0.077,0.492,0.149,0.816,0.216
		c0.523,0.11,0.983,0.166,1.41,0.166l0,0c1.14,0,1.973-0.403,2.475-1.199c0.579-0.913,0.486-3.03,0.341-4.142
		C124.577,104.311,123.88,102.84,122.869,101.883z M124.388,110c-0.486,0.774-1.303,1.16-2.41,1.16
		c-0.422,0-0.881-0.049-1.395-0.159c-0.324-0.067-0.588-0.139-0.81-0.216c-0.968-0.338-1.41-0.907-1.632-2.112
		c-0.238-1.223-0.271-2.709-0.103-4.08c0.216-1.797,1.242-3.616,2.782-3.616c0.648,0,1.324,0.321,2,0.962
		c0.993,0.951,1.691,2.394,1.896,3.964C124.853,106.931,124.96,109.104,124.388,110z"/>
	<path fill="#353535" d="M8.437,126.531c0.691-0.127,1.275-0.276,1.843-0.414c0.691-0.173,1.346-0.338,2.188-0.47
		c0.773-0.117,1.589-0.178,2.383-0.238c1.778-0.116,3.615-0.244,5.182-1.084c1.972-1.056,2.178-3.743,1.502-5.938
		c-1.14-3.721-2.61-6.291-4.496-7.861c-0.74-0.614-1.438-1.321-2.107-2.014c-1.356-1.375-2.756-2.803-4.577-3.555
		c-1.389-0.58-2.988-1.006-4.534-1.415c-0.935-0.249-1.897-0.509-2.81-0.796c-0.427-0.133-0.892-0.305-1.378-0.492
		c-0.265-0.1-0.541-0.199-0.821-0.299v0.077c0.27,0.1,0.535,0.199,0.794,0.294c0.492,0.182,0.956,0.358,1.383,0.491
		c0.919,0.288,1.881,0.548,2.81,0.791c1.545,0.414,3.14,0.841,4.534,1.416c1.805,0.752,3.199,2.172,4.544,3.538
		c0.676,0.691,1.378,1.404,2.118,2.019c1.875,1.559,3.334,4.118,4.469,7.834c0.665,2.162,0.47,4.811-1.464,5.839
		c-1.556,0.835-3.382,0.961-5.155,1.089c-0.794,0.05-1.616,0.11-2.388,0.232c-0.848,0.138-1.535,0.304-2.2,0.47
		c-0.562,0.145-1.14,0.287-1.832,0.415c-1.271,0.232-2.562,0.408-3.815,0.574c-1.319,0.183-2.604,0.359-3.799,0.586v0.078
		c1.194-0.232,2.48-0.41,3.809-0.587C5.875,126.94,7.167,126.769,8.437,126.531z"/>
	<path fill="#353535" d="M6.805,122.059c1.643-0.476,3.339-0.962,4.955-1.686c1.594-0.709,3.209-1.538,3.928-3.207
		c0.93-2.179,0.022-4.528-2.431-6.271c-0.427-0.305-0.827-0.603-1.222-0.896c-1.643-1.233-3.194-2.395-5.431-2.837
		c-1.448-0.276-3.593-0.447-5.792-0.503v0.077c2.194,0.045,4.333,0.216,5.782,0.498c2.215,0.441,3.761,1.598,5.398,2.825
		c0.395,0.293,0.8,0.597,1.222,0.896c2.426,1.726,3.323,4.036,2.404,6.177c-0.702,1.642-2.307,2.471-3.885,3.168
		c-1.616,0.724-3.307,1.21-4.95,1.686c-0.854,0.244-1.74,0.504-2.604,0.785c-1.102,0.365-2.253,0.597-3.366,0.812v0.077
		c1.124-0.221,2.28-0.447,3.388-0.817C5.059,122.562,5.945,122.302,6.805,122.059z"/>
	<path fill="#353535" d="M6.281,130.855c1.658,0.066,3.366,0.12,5.036-0.051c1.534-0.159,2.945-0.48,4.312-0.802
		c0.34-0.072,0.675-0.154,1.021-0.227c0.254-0.061,0.502-0.116,0.762-0.171c2.604-0.569,5.3-1.15,7.495-2.682
		c2.556-1.774,2.891-5.501,1.724-8.072c-1.064-2.355-2.848-4.219-4.571-6.021c-1.432-1.486-2.913-3.03-3.972-4.854
		c-0.486-0.663-0.886-1.305-1.275-1.923c-1.254-1.991-2.242-3.562-4.874-4.192c-5.069-1.21-9.446-2.255-10.262-7.425
		c-0.286-1.83,0.108-3.262,0.486-4.645c0.303-1.101,0.589-2.14,0.524-3.311l-0.005-0.018l-0.011-0.005
		c-0.135-0.128-0.265-0.26-0.389-0.394c-0.167-0.176-0.341-0.359-0.535-0.509l-0.01-0.011H1.72
		c-0.346,0.022-0.648,0.072-0.908,0.134v0.07c0.254-0.055,0.556-0.104,0.902-0.126c0.184,0.148,0.352,0.32,0.514,0.491
		c0.124,0.127,0.248,0.266,0.383,0.382c0.065,1.161-0.216,2.189-0.518,3.273c-0.378,1.394-0.773,2.83-0.486,4.677
		c0.821,5.22,5.22,6.271,10.315,7.486c2.604,0.62,3.588,2.185,4.826,4.158c0.389,0.625,0.8,1.261,1.28,1.924
		c1.06,1.824,2.545,3.372,3.977,4.871c1.719,1.797,3.501,3.649,4.566,5.993c1.146,2.55,0.827,6.227-1.702,7.989
		c-2.194,1.515-4.874,2.107-7.467,2.665c-0.26,0.056-0.514,0.117-0.768,0.166c-0.34,0.077-0.681,0.155-1.021,0.237
		c-1.361,0.31-2.772,0.637-4.307,0.796c-1.665,0.178-3.367,0.111-5.02,0.051c-1.918-0.066-3.733-0.133-5.474,0.139v0.076
		C2.546,130.728,4.367,130.794,6.281,130.855z"/>
	<path fill="#353535" d="M56.75,114.113c0.238,0.116,0.459,0.221,0.637,0.359c0.849,0.63,1.573,1.492,2.032,2.112
		c1.162,1.554,1.854,3.046,2.302,5.004c0.632,2.736,2.308,3.82,4.993,4.771c1.535,0.541,3.237,0.835,4.923,0.835
		c0.854,0,1.686-0.078,2.475-0.222c2.896-0.53,4.755-2.322,5.096-4.932c0.076-0.542,0.173-1.112,0.27-1.658
		c0.395-2.212,0.8-4.502-0.453-6.542c-1.027-1.658-2.967-1.891-4.912-1.891c-0.373,0-0.756,0.011-1.113,0.017
		c-0.356,0.011-0.724,0.022-1.07,0.022c-0.703,0-1.216-0.039-1.665-0.104c-1.55-0.255-3.096-0.642-4.577-1.019
		c-2.458-0.613-4.777-1.205-7.095-1.205c-0.492,0-0.978,0.033-1.437,0.084c-0.589,0.071-1.119,0.591-1.438,1.397
		c-0.292,0.753-0.378,1.759,0.086,2.334C56.037,113.76,56.405,113.937,56.75,114.113z M55.789,111.172
		c0.302-0.78,0.816-1.283,1.373-1.35c0.459-0.049,0.94-0.082,1.432-0.082c2.313,0,4.621,0.581,7.074,1.199
		c1.491,0.377,3.031,0.763,4.587,1.012c0.454,0.077,0.973,0.105,1.675,0.105c0.346,0,0.713-0.006,1.07-0.011
		c0.362-0.012,0.74-0.018,1.113-0.018c1.923,0,3.842,0.222,4.848,1.853c1.236,2.013,0.837,4.291,0.447,6.486
		c-0.097,0.552-0.199,1.121-0.27,1.663c-0.341,2.572-2.172,4.341-5.036,4.871c-0.784,0.149-1.616,0.216-2.464,0.216
		c-1.675,0-3.372-0.287-4.901-0.824c-2.664-0.944-4.323-2.018-4.944-4.727c-0.454-1.963-1.146-3.467-2.318-5.031
		c-0.454-0.614-1.183-1.487-2.037-2.123c-0.189-0.144-0.427-0.255-0.648-0.371c-0.352-0.171-0.708-0.348-0.924-0.607
		C55.48,112.964,55.454,112.034,55.789,111.172z"/>
	<path fill="#353535" d="M70.098,124.088c0.859,0,1.761-0.155,2.177-0.293c0.125-0.044,0.254-0.095,0.368-0.149
		c0.702-0.338,1.108-0.912,1.124-1.615c0.01-0.547-0.227-1.133-0.632-1.559c-0.556-0.587-1.34-0.802-2.091-0.57
		c-0.811,0.255-2.513,1.245-3.015,2.329c-0.178,0.375-0.2,0.729-0.07,1.056C68.222,123.943,69.265,124.088,70.098,124.088z
		 M68.087,122.263c0.502-1.062,2.172-2.046,2.972-2.289c0.199-0.061,0.399-0.089,0.588-0.089c0.535,0,1.043,0.223,1.432,0.637
		c0.4,0.414,0.627,0.979,0.61,1.509c-0.016,0.67-0.399,1.223-1.08,1.543c-0.114,0.055-0.232,0.105-0.356,0.149
		c-0.417,0.138-1.303,0.287-2.156,0.287c-1.151,0-1.881-0.265-2.07-0.746C67.898,122.954,67.92,122.616,68.087,122.263z"/>
	<path fill="#353535" d="M92.469,152.07c-0.017-0.173-0.011-0.344-0.006-0.531c0.006-0.193,0.011-0.388-0.011-0.586
		c-0.141-1.205-0.621-2.682-1.124-4.241c-0.519-1.593-1.054-3.234-1.308-4.815c-0.103-0.663-0.173-1.378-0.243-2.068
		c-0.21-2.255-0.427-4.578-1.967-5.617c-0.697-0.476-1.718-0.691-3.204-0.691c-0.832,0-1.729,0.067-2.61,0.127
		c-0.341,0.022-0.686,0.05-1.026,0.072c-3.043,0.188-9.375,0.995-11.585,2.71c-3.015,2.338-3.377,6.353-3.329,9.979
		c0.356,4.562,3.404,7.116,6.76,9.693h0.119c-3.372-2.589-6.447-5.132-6.814-9.698c-0.043-3.599,0.319-7.597,3.312-9.913
		c2.188-1.703,8.506-2.511,11.542-2.698c0.341-0.017,0.687-0.05,1.032-0.072c0.875-0.066,1.773-0.127,2.6-0.127
		c1.475,0,2.479,0.216,3.166,0.68c1.508,1.018,1.725,3.323,1.94,5.562c0.06,0.69,0.129,1.41,0.237,2.073
		c0.254,1.587,0.789,3.234,1.308,4.833c0.508,1.553,0.989,3.019,1.118,4.218c0.022,0.193,0.018,0.394,0.012,0.575
		c-0.006,0.193-0.012,0.37,0.011,0.542c0.146,1.188-0.011,2.604-0.405,4.025h0.076C92.458,154.674,92.619,153.253,92.469,152.07z"/>
	<path fill="#353535" d="M11.117,152.601c-0.043-1.051-0.016-2.106,0.021-3.13c0.049-1.564,0.097-3.052-0.167-4.246
		c-0.643-2.936-4.258-5.031-7.43-6.016c-0.94-0.292-1.804-0.393-2.729-0.314v0.071c0.913-0.071,1.778,0.027,2.712,0.315
		c3.15,0.979,6.739,3.058,7.376,5.955c0.265,1.188,0.216,2.67,0.167,4.229c-0.038,1.028-0.07,2.084-0.021,3.135
		c0.054,1.249,0.01,2.428-0.108,3.5h0.075C11.127,155.028,11.176,153.85,11.117,152.601z"/>
	<path fill="#353535" d="M88.707,151.389c-0.135-0.712-0.389-1.575-0.658-2.492c-0.385-1.321-0.827-2.82-1.049-4.341
		c-0.065-0.431-0.119-0.841-0.173-1.238c-0.352-2.599-0.627-4.65-2.323-6.01c-1.157-0.924-3.318-1.477-5.782-1.477
		c-2.999,0-5.787,0.773-7.463,2.073c-2.75,2.128-2.858,5.883-2.469,8.659c0.605,2.957,2.681,4.478,5.312,6.418
		c1.227,0.896,2.497,1.83,3.788,3.024c0.032,0.028,0.064,0.067,0.103,0.095H78.1c-0.059-0.045-0.107-0.1-0.167-0.15
		c-1.291-1.198-2.615-2.173-3.782-3.034c-2.621-1.919-4.69-3.439-5.291-6.37c-0.395-2.753-0.286-6.475,2.448-8.586
		c1.653-1.283,4.432-2.052,7.414-2.052c2.448,0,4.588,0.542,5.739,1.46c1.68,1.338,1.944,3.373,2.29,5.955
		c0.06,0.402,0.108,0.818,0.174,1.237c0.226,1.531,0.664,3.036,1.054,4.353c0.27,0.917,0.523,1.779,0.653,2.487
		c0.281,1.516,0.173,3.179-0.287,4.7h0.076C88.881,154.568,88.989,152.905,88.707,151.389z"/>
	<path fill="#353535" d="M36.179,146.988c-0.303-1.089-0.535-3.135-0.362-4.556c0.032-0.282,0.108-0.598,0.194-0.929
		c0.286-1.15,0.643-2.577-0.768-3.61l-0.01-0.006h-0.006c-2.615-0.314-4.204,1.88-5.604,3.815c-0.367,0.514-0.708,0.983-1.064,1.421
		c-1.275,1.365-3.01,2.344-4.853,3.389c-2.848,1.621-5.798,3.295-7.181,6.558c-0.4,0.918-0.741,1.985-1.07,3.03h0.076
		c0.33-1.039,0.67-2.096,1.054-3.003c1.383-3.245,4.317-4.904,7.159-6.518c1.843-1.045,3.583-2.03,4.864-3.413
		c0.362-0.431,0.708-0.911,1.075-1.414c1.389-1.919,2.956-4.098,5.528-3.793c1.356,1.006,1.026,2.344,0.735,3.527
		c-0.087,0.332-0.168,0.652-0.206,0.939c-0.162,1.427,0.06,3.489,0.367,4.578c0.465,1.676,1.146,3.356,1.854,5.148
		c0.519,1.288,1.043,2.609,1.502,3.947h0.076c-0.459-1.349-0.995-2.676-1.508-3.976C37.313,150.339,36.644,148.653,36.179,146.988z"
		/>
	<path fill="#353535" d="M77.554,138.07c-1.621,0-3.22,0.486-4.273,1.305c-1.373,1.057-2.194,2.328-2.042,5.413
		c0.935,3.932,5.101,6.049,8.548,6.049l0,0c0.448,0,0.88-0.033,1.308-0.105h0.011l0.005-0.006c0.471-0.393,0.919-0.885,1.362-1.492
		l0.005-0.017c1.266-3.997,1.205-7.32-0.156-9.112C81.348,138.812,79.608,138.07,77.554,138.07z M82.412,149.194
		c-0.442,0.597-0.876,1.078-1.335,1.471c-0.421,0.061-0.854,0.1-1.291,0.1l0,0c-3.426,0-7.554-2.101-8.473-5.982
		c-0.151-3.052,0.659-4.307,2.005-5.346c1.043-0.808,2.626-1.289,4.236-1.289c2.032,0,3.745,0.73,4.707,2.002
		C83.611,141.918,83.661,145.22,82.412,149.194z"/>
	<path fill="#353535" d="M59.787,149.089c-0.546-2.687-1.102-5.456-2.815-7.663c-0.881-1.133-1.967-1.569-3.345-1.365
		c-2.831,0.432-6.198,3.053-8.008,4.467c-2.026,2.162-2.788,4.777-2.339,7.995c0.162,1.146,0.475,2.372,0.805,3.578h0.075
		c-0.33-1.211-0.654-2.444-0.805-3.589c-0.448-3.195,0.308-5.794,2.313-7.934c1.799-1.399,5.155-4.021,7.97-4.44
		c0.216-0.033,0.427-0.05,0.626-0.05c1.059,0,1.924,0.453,2.648,1.389c1.702,2.189,2.264,4.948,2.804,7.624
		c0.481,2.405,0.979,4.898,2.329,6.905c0.021,0.039,0.038,0.067,0.065,0.095h0.086c-0.032-0.039-0.065-0.089-0.098-0.133
		C60.765,153.972,60.268,151.489,59.787,149.089z"/>
	<path fill="#353535" d="M77.906,143.135l-0.006-0.011c-0.276-0.465-0.708-0.747-1.156-0.747c-0.141,0-0.292,0.027-0.433,0.089
		l-0.005,0.005c-0.271,0.205-0.459,0.543-0.492,0.857c-0.021,0.227,0.043,0.437,0.188,0.598c0.093,0.076,0.189,0.166,0.281,0.276
		l0.006,0.006h0.011c0.141,0.055,0.286,0.082,0.427,0.082l0,0c0.47,0,0.907-0.282,1.167-0.746l0.006-0.017
		c0.011-0.132,0.006-0.271,0.006-0.387V143.135z M77.824,143.516c-0.248,0.442-0.653,0.697-1.097,0.697l0,0
		c-0.129,0-0.264-0.021-0.4-0.066c-0.091-0.105-0.188-0.198-0.274-0.271c-0.125-0.15-0.189-0.332-0.168-0.542
		c0.033-0.293,0.211-0.608,0.454-0.802c0.14-0.056,0.274-0.077,0.405-0.077c0.421,0,0.826,0.265,1.086,0.697
		C77.836,143.262,77.836,143.39,77.824,143.516z"/>
	<path fill="#353535" d="M4.4,146.44c-0.903-1.133-1.745-1.598-3.588-1.951v0.077c1.81,0.349,2.643,0.802,3.534,1.919
		c1.572,1.984,2.539,5.678,2.772,8.271c0.043,0.481,0.065,0.929,0.065,1.344h0.07c0-0.415-0.016-0.868-0.06-1.349
		C6.961,152.147,5.983,148.432,4.4,146.44z"/>
	<path fill="#353535" d="M50.898,147.414c-0.103,0-0.211,0-0.319,0.011c-0.989,0.083-1.858,0.553-2.523,1.354
		c-0.946,1.15-1.367,2.908-1.184,4.949c0.07,0.785,0.194,1.587,0.367,2.372h0.07c-0.167-0.791-0.297-1.587-0.367-2.378
		c-0.179-2.023,0.232-3.76,1.167-4.898c0.648-0.785,1.502-1.249,2.475-1.333c0.108-0.006,0.211-0.011,0.313-0.011
		c2.934,0,4.02,3.578,4.977,6.724c0.2,0.663,0.395,1.311,0.6,1.896h0.081c-0.21-0.586-0.405-1.244-0.61-1.919
		C54.983,151.008,53.892,147.414,50.898,147.414z"/>
	<path fill="#353535" d="M30.969,150.389c-0.491-0.072-0.989-0.104-1.486-0.104c-1.988,0-3.939,0.553-5.636,1.598
		c-1.659,1.028-3.004,2.482-3.907,4.219h0.082c1.854-3.55,5.452-5.745,9.461-5.745c0.492,0,0.989,0.039,1.481,0.1
		c2.134,0.299,4.242,2.112,5.766,4.971c0.119,0.221,0.238,0.447,0.34,0.675h0.076c-0.108-0.237-0.227-0.477-0.351-0.709
		C35.255,152.512,33.137,150.688,30.969,150.389z"/>
	<path fill="#353535" d="M0.915,153.551c-0.038,0-0.07,0-0.103,0.006v0.066c0.032,0,0.064,0,0.103,0
		c0.562,0,1.021,0.371,1.308,1.051c0.167,0.414,0.26,0.918,0.254,1.427h0.081c0-0.52-0.097-1.039-0.27-1.454
		C1.99,153.944,1.504,153.551,0.915,153.551z"/>
	<path fill="#353535" d="M25.345,156.101h0.124c1.14-0.802,2.534-1.262,3.95-1.262c1.394,0,2.68,0.449,3.718,1.262h0.119
		c-1.059-0.862-2.399-1.333-3.836-1.333C27.949,154.768,26.517,155.249,25.345,156.101z"/>
	<path fill="#353535" d="M130.078,148.918c-0.854-1.604-1.746-3.268-2.448-4.986c-0.389-0.94-0.74-1.969-1.113-3.064
		c-1.589-4.671-3.388-9.962-8.965-9.962c-0.069,0-0.146,0-0.222,0c-2.026,0.05-3.933,0.773-5.176,1.377
		c-0.304,0.138-0.616,0.286-0.93,0.441c-0.935,0.437-1.902,0.891-2.772,1.383c-2.534,1.432-5.44,2.129-8.246,2.809l-0.037,0.005
		c-0.237,0.062-0.491,0.122-0.763,0.172c-1.88,0.409-4.22,0.923-4.966,3.156c-0.566,1.726-0.043,3.932,0.459,6.061
		c0.184,0.78,0.357,1.515,0.476,2.211c0.405,2.416,0.438,4.695,0.076,6.769c-0.048,0.266-0.103,0.536-0.167,0.812h0.075
		c0.064-0.271,0.114-0.536,0.162-0.802c0.356-2.079,0.335-4.368-0.076-6.79c-0.124-0.702-0.292-1.438-0.475-2.217
		c-0.508-2.123-1.021-4.318-0.46-6.021c0.729-2.2,3.048-2.697,4.913-3.102c0.27-0.062,0.523-0.115,0.762-0.177l0.038-0.005
		c2.814-0.676,5.727-1.378,8.267-2.815c0.859-0.486,1.826-0.945,2.762-1.387c0.318-0.145,0.627-0.293,0.929-0.438
		c1.237-0.603,3.145-1.321,5.149-1.372c0.076-0.004,0.152-0.004,0.222-0.004c5.523,0,7.312,5.269,8.9,9.924
		c0.367,1.089,0.718,2.123,1.107,3.068c0.714,1.726,1.595,3.384,2.453,4.999c0.729,1.365,1.422,2.654,2.016,3.986
		c0.589,1.327,1.211,2.372,1.864,3.151h0.098c-0.676-0.774-1.297-1.83-1.902-3.18C131.499,151.589,130.808,150.295,130.078,148.918z
		"/>
	<path fill="#353535" d="M154.719,134.941c-4.593,1.774-7.663,5.124-8.867,9.691c-0.341,1.271-0.573,2.903-0.806,4.479
		c-0.286,1.958-0.584,3.981-1.064,5.386c-0.211,0.603-0.503,1.139-0.881,1.604h0.086c0.368-0.465,0.66-0.99,0.859-1.576
		c0.492-1.415,0.784-3.438,1.07-5.402c0.232-1.575,0.47-3.206,0.806-4.472c1.199-4.534,4.246-7.873,8.823-9.644
		c0.379-0.144,1.027-0.325,1.578-0.442c0.13-0.021,0.259-0.05,0.395-0.066v-0.077c-0.141,0.027-0.275,0.044-0.41,0.072
		C155.756,134.609,155.102,134.792,154.719,134.941z"/>
	<path fill="#353535" d="M150.255,101.197c-1.47,0.338-2.885,1.067-4.253,1.78c-1.372,0.709-2.788,1.443-4.247,1.759
		c-3.777,0.834-5.176-2.549-6.408-5.545c-0.179-0.427-0.347-0.835-0.514-1.229c-0.703-1.564-1.497-2.997-2.377-4.257
		c-1.768-2.538-3.8-4.562-6.048-6.016c-2.08-1.344-3.837-2.079-5.511-2.306c-2.718-0.37-4.653,0.492-6.879,1.481
		c-0.481,0.216-0.983,0.442-1.497,0.653c-1.47,0.607-3.14,1.299-4.28,2.803c-0.853,1.128-1.501,2.494-2.117,3.821l-0.146,0.297
		c-1.151,2.438-1.993,4.844-2.886,7.388c-0.199,0.574-0.4,1.161-0.594,1.735c-0.536,1.576-1.086,3.207-1.763,4.75
		c-0.502,1.178-1.27,2.201-2.01,3.195c-0.416,0.554-0.843,1.123-1.216,1.715c-0.956,1.492-2.453,2.797-3.907,4.058
		c-0.523,0.458-1.021,0.891-1.485,1.327c-0.292,0.266-0.6,0.542-0.935,0.829c-1.502,1.327-3.204,2.83-3.653,4.738
		c-0.059,0.254-0.113,0.509-0.167,0.752c-0.481,2.134-0.902,3.98-2.988,5.318c-1.973,1.267-4.371,1.676-6.484,2.036
		c-1,0.171-2.016,0.303-2.994,0.441c-1.816,0.237-3.523,0.47-5.074,0.886c-3.544,0.967-5.706,3.482-6.425,7.49
		c-0.697,3.91,0.011,8.681,0.799,10.633c0.708,1.758,1.902,3.135,3.334,4.368h0.119c-1.459-1.239-2.669-2.626-3.388-4.401
		c-0.778-1.935-1.491-6.689-0.794-10.589c0.719-3.975,2.853-6.474,6.371-7.425c1.551-0.425,3.258-0.652,5.069-0.896
		c0.978-0.127,1.994-0.26,2.994-0.432c2.117-0.364,4.522-0.773,6.511-2.051c2.119-1.354,2.529-3.213,3.016-5.363
		c0.06-0.243,0.119-0.497,0.173-0.752c0.443-1.886,2.14-3.372,3.632-4.693c0.329-0.294,0.648-0.57,0.935-0.841
		c0.465-0.431,0.957-0.868,1.486-1.321c1.453-1.267,2.955-2.565,3.912-4.075c0.377-0.586,0.805-1.155,1.215-1.708
		c0.741-0.995,1.514-2.029,2.026-3.207c0.677-1.543,1.228-3.18,1.763-4.761c0.193-0.569,0.395-1.161,0.594-1.736
		c0.892-2.537,1.734-4.938,2.886-7.381l0.135-0.299c0.622-1.321,1.265-2.681,2.124-3.809c1.124-1.482,2.782-2.168,4.241-2.771
		c0.52-0.222,1.017-0.442,1.497-0.652c2.222-0.995,4.14-1.852,6.847-1.487c1.664,0.232,3.404,0.957,5.479,2.3
		c2.237,1.448,4.269,3.468,6.03,6.005c0.87,1.249,1.664,2.682,2.361,4.24c0.173,0.388,0.34,0.796,0.52,1.228
		c0.6,1.443,1.269,3.08,2.258,4.213c1.141,1.3,2.523,1.753,4.236,1.377c1.459-0.32,2.881-1.062,4.259-1.774
		c1.367-0.702,2.783-1.438,4.236-1.764c2.398-0.548,4.599,0.088,6.446,0.757v-0.077
		C154.864,101.286,152.665,100.661,150.255,101.197z"/>
	<path fill="#353535" d="M146.451,129.141c-1.714,1.703-3.335,3.318-5.458,3.948c-2.95,0.89-5.182-1.332-7.343-3.488
		c-0.131-0.134-0.266-0.266-0.396-0.399c-1.097-1.083-2.41-1.907-3.68-2.698c-0.908-0.568-1.854-1.16-2.701-1.841
		c-0.639-0.514-1.313-0.989-1.968-1.448c-0.443-0.32-0.896-0.642-1.329-0.962c-0.724-0.542-1.227-1.393-1.719-2.223
		c-0.265-0.442-0.534-0.907-0.843-1.299c-0.832-1.095-2.004-1.925-3.145-2.731c-2.086-1.471-4.059-2.864-4.199-5.75
		c-0.081-1.72,0.298-3.854,1.038-5.861c0.708-1.896,2.042-3.953,3.669-5.646c1.108-1.149,2.232-1.686,3.34-1.592
		c1.967,0.172,3.652,2.301,4.901,4.142c0.734,1.084,1.025,2.123,1.329,3.229c0.178,0.642,0.361,1.294,0.643,1.996
		c0.28,0.696,0.621,1.383,0.94,2.046c0.519,1.045,1.042,2.123,1.372,3.278c0.552,1.929,0.659,4.728-0.194,6.342
		c-0.832,1.56-0.438,4.208,0.438,5.596c0.794,1.261,2.782,2.062,4.382,2.708c0.362,0.145,0.696,0.288,0.999,0.415
		c0.141,0.067,0.287,0.127,0.422,0.193c0.519,0.232,0.956,0.442,1.459,0.548c2.48,0.52,4.193-0.696,5.226-3.716
		c1.086-3.173,0.335-6.06-2.119-8.133c-0.745-0.625-1.6-1.105-2.426-1.57c-0.372-0.21-0.762-0.432-1.134-0.658
		c-0.099-0.061-0.195-0.115-0.292-0.182c-1.081-0.659-2.421-1.476-3.161-2.428c-1.107-1.427-2.016-2.969-2.702-4.595
		c-0.346-0.828-0.621-1.675-0.907-2.576c-0.212-0.646-0.428-1.311-0.677-1.984c-0.566-1.538-1.432-2.903-2.047-3.776
		c-1.168-1.626-3.27-3.811-5.36-4.606c-3.308-1.255-7.761,2.084-9.948,4.628c-1.228,1.427-2.021,3.207-2.643,4.755
		c-0.168,0.42-0.329,0.853-0.498,1.267c-0.902,2.321-1.761,4.517-3.188,6.54c-0.459,0.653-0.838,1.35-1.204,2.024
		c-0.266,0.48-0.536,0.989-0.838,1.471c-0.768,1.228-1.936,1.957-3.086,2.565c-0.53,0.281-1.081,0.541-1.61,0.802
		c-1.534,0.729-3.118,1.492-4.409,2.736c-0.821,0.796-1.146,1.637-0.973,2.505c0.286,1.438,1.843,2.516,3.209,3.035
		c2.838,1.084,6.123,0.691,9.014,0.338l0.373-0.039c0.232-0.028,0.459-0.05,0.686-0.078c1.276-0.132,2.486-0.26,3.696-0.967
		c0.195-0.111,0.385-0.222,0.573-0.332c1.832-1.067,3.415-1.996,5.518-2.471c1.318-0.305,3.279-0.277,4.474,0.491
		c0.595,0.376,0.849,0.951,1.119,1.56c0.161,0.375,0.334,0.757,0.583,1.105c1.006,1.344,2.361,2.4,3.675,3.429
		c1.285,1,2.621,2.039,3.626,3.35c0.6,0.78,1.102,1.748,1.594,2.676c0.486,0.936,0.994,1.897,1.572,2.638
		c1.194,1.509,2.815,2.028,4.588,1.466c1.534-0.493,3.236-1.825,4.885-3.113c0.254-0.199,0.497-0.393,0.74-0.581
		c0.859-0.663,1.697-1.359,2.507-2.034c2.228-1.853,4.335-3.604,6.706-4.59c0.94-0.386,2.016-0.668,3.167-0.895v-0.078
		c-1.167,0.232-2.248,0.509-3.193,0.907c-2.383,0.984-4.496,2.747-6.728,4.6c-0.811,0.675-1.643,1.366-2.502,2.029
		c-0.243,0.188-0.492,0.382-0.735,0.581c-1.643,1.283-3.339,2.615-4.869,3.102c-1.739,0.553-3.338,0.044-4.506-1.443
		c-0.572-0.729-1.06-1.648-1.567-2.615c-0.491-0.939-1.005-1.913-1.604-2.692c-1.017-1.316-2.346-2.361-3.637-3.367
		c-1.308-1.022-2.659-2.079-3.658-3.417c-0.243-0.332-0.411-0.713-0.578-1.084c-0.276-0.613-0.534-1.199-1.141-1.598
		c-1.215-0.779-3.204-0.807-4.534-0.503c-2.111,0.486-3.7,1.41-5.538,2.488c-0.188,0.104-0.384,0.216-0.572,0.337
		c-1.194,0.691-2.395,0.812-3.67,0.946c-0.221,0.027-0.453,0.054-0.687,0.076l-0.366,0.05c-2.892,0.344-6.16,0.735-8.986-0.342
		c-1.692-0.642-2.935-1.814-3.161-2.98c-0.167-0.841,0.151-1.659,0.956-2.433c1.275-1.232,2.859-1.997,4.383-2.731
		c0.535-0.249,1.086-0.515,1.621-0.797c1.15-0.607,2.334-1.349,3.112-2.598c0.297-0.481,0.572-0.979,0.838-1.465
		c0.367-0.676,0.745-1.372,1.199-2.014c1.438-2.034,2.291-4.235,3.198-6.562c0.163-0.42,0.324-0.841,0.498-1.271
		c0.621-1.537,1.41-3.307,2.626-4.728c2.172-2.526,6.592-5.85,9.867-4.605c2.074,0.785,4.166,2.964,5.322,4.584
		c0.627,0.867,1.486,2.222,2.048,3.754c0.248,0.669,0.465,1.338,0.671,1.979c0.286,0.901,0.562,1.752,0.912,2.581
		c0.687,1.632,1.6,3.18,2.708,4.612c0.751,0.961,2.097,1.785,3.177,2.449c0.103,0.055,0.2,0.115,0.304,0.182
		c0.366,0.227,0.762,0.442,1.134,0.659c0.821,0.458,1.67,0.934,2.41,1.559c2.427,2.051,3.172,4.909,2.103,8.056
		c-1.021,2.98-2.708,4.174-5.15,3.665c-0.486-0.104-0.93-0.303-1.442-0.542c-0.136-0.06-0.281-0.127-0.422-0.198
		c-0.298-0.127-0.643-0.26-0.999-0.409c-1.595-0.647-3.572-1.443-4.351-2.682c-0.858-1.371-1.253-3.976-0.438-5.518
		c0.858-1.626,0.751-4.457,0.2-6.402c-0.324-1.156-0.859-2.24-1.368-3.29c-0.329-0.663-0.659-1.35-0.939-2.046
		c-0.281-0.69-0.465-1.35-0.644-1.985c-0.303-1.11-0.595-2.155-1.34-3.25c-1.259-1.847-2.961-3.998-4.955-4.169
		c-1.129-0.1-2.27,0.442-3.393,1.607c-1.638,1.704-2.978,3.771-3.687,5.674c-0.745,2.018-1.124,4.169-1.043,5.894
		c0.141,2.92,2.216,4.385,4.226,5.806c1.136,0.802,2.309,1.631,3.135,2.715c0.303,0.387,0.562,0.829,0.838,1.3
		c0.491,0.823,0.999,1.68,1.729,2.232c0.438,0.327,0.897,0.653,1.335,0.963c0.648,0.464,1.324,0.945,1.962,1.448
		c0.853,0.686,1.799,1.277,2.712,1.841c1.271,0.796,2.578,1.615,3.664,2.698c0.141,0.133,0.265,0.26,0.4,0.397
		c2.172,2.162,4.42,4.408,7.413,3.506c2.135-0.635,3.767-2.25,5.49-3.964c1.633-1.626,3.329-3.312,5.609-4.291
		c1.458-0.624,3.048-0.983,4.604-1.311v-0.076c-1.567,0.325-3.161,0.69-4.636,1.327C149.796,125.823,148.1,127.511,146.451,129.141z
		"/>
	<path fill="#353535" d="M149.109,107.098c-1.173,0.254-2.372,0.861-3.643,1.498c-2.107,1.062-4.279,2.162-6.283,1.52
		c-3.605-1.149-4.988-5.069-6.21-8.52c-0.254-0.708-0.485-1.371-0.739-2.013c-0.557-1.421-1.26-2.742-2.081-3.908
		c-1.281-1.825-2.853-2.953-4.518-4.143c-0.254-0.176-0.502-0.358-0.762-0.541c-1.465-1.066-3.253-2.118-5.316-1.813
		c-0.648,0.094-1.325,0.448-1.974,0.79c-0.41,0.222-0.8,0.421-1.177,0.564c-0.282,0.105-0.568,0.215-0.86,0.326
		c-2.21,0.812-4.495,1.664-6.067,3.495c-0.449,0.524-0.838,1.21-1.211,1.862c-0.194,0.348-0.378,0.669-0.567,0.979
		c-0.783,1.222-1.453,2.571-2.01,4.009c-0.595,1.564-0.945,3.24-1.281,4.866c-0.367,1.752-0.746,3.571-1.432,5.219
		c-0.708,1.691-2.577,2.908-4.231,3.976c-0.447,0.293-0.875,0.569-1.253,0.846c-1.124,0.802-2.103,1.77-3.037,2.709
		c-0.616,0.613-1.254,1.256-1.929,1.835c-1.562,1.35-2.26,3.655-1.832,6.017c0.757,4.135,2.328,4.815,5.732,5.396
		c2.595,0.438,5.615,0.332,9.225-0.309c2.08-0.377,4.059-1.754,5.966-3.075c0.697-0.486,1.352-0.939,1.994-1.332
		c2.68-1.659,5.862-1.311,8.505,0.924c0.341,0.282,0.681,0.563,1.021,0.835c2.01,1.646,3.912,3.2,4.923,5.672
		c0.448,1.078,0.739,2.229,1.026,3.346c0.275,1.089,0.562,2.217,0.994,3.284c0.648,1.604,1.918,3.378,3.317,4.634
		c1.205,1.088,3.032,2.261,4.881,1.707c1.718-0.514,2.728-2.509,3.804-4.621c0.681-1.344,1.394-2.727,2.328-3.877
		c1.217-1.498,2.843-2.853,3.962-3.743l0.113-0.093c2.399-1.902,4.657-3.705,7.651-4.313c0.188-0.044,0.384-0.077,0.578-0.105
		v-0.076c-0.2,0.033-0.395,0.065-0.6,0.104c-3.011,0.613-5.274,2.422-7.668,4.329l-0.125,0.095
		c-1.118,0.889-2.744,2.255-3.971,3.753c-0.94,1.156-1.644,2.55-2.335,3.894c-1.064,2.101-2.074,4.079-3.761,4.583
		c-1.811,0.547-3.615-0.613-4.81-1.687c-1.372-1.233-2.669-3.041-3.296-4.611c-0.433-1.062-0.719-2.189-0.994-3.272
		c-0.287-1.117-0.578-2.272-1.026-3.356c-1.021-2.488-3.021-4.119-4.955-5.7c-0.33-0.271-0.676-0.553-1.011-0.835
		c-2.676-2.257-5.885-2.599-8.592-0.935c-0.648,0.398-1.302,0.852-1.988,1.332c-1.913,1.327-3.886,2.693-5.95,3.063
		c-3.599,0.652-6.608,0.752-9.196,0.31c-3.366-0.569-4.923-1.25-5.674-5.335c-0.428-2.333,0.27-4.611,1.805-5.938
		c0.675-0.592,1.318-1.228,1.939-1.847c0.935-0.934,1.902-1.908,3.021-2.704c0.377-0.271,0.81-0.548,1.253-0.84
		c1.659-1.072,3.539-2.289,4.259-4.003c0.691-1.659,1.069-3.483,1.437-5.236c0.341-1.625,0.681-3.295,1.281-4.849
		c0.551-1.433,1.221-2.781,1.999-4.003c0.194-0.304,0.378-0.637,0.573-0.979c0.372-0.652,0.757-1.327,1.204-1.852
		c1.562-1.814,3.837-2.66,6.037-3.479c0.286-0.11,0.572-0.215,0.864-0.32c0.383-0.149,0.783-0.365,1.172-0.57
		c0.648-0.343,1.318-0.69,1.956-0.785c2.043-0.298,3.804,0.747,5.269,1.803c0.26,0.188,0.503,0.359,0.757,0.536
		c1.664,1.195,3.231,2.312,4.502,4.125c0.82,1.166,1.513,2.482,2.074,3.903c0.249,0.631,0.48,1.3,0.734,2.007
		c1.227,3.467,2.616,7.403,6.264,8.564c2.025,0.647,4.221-0.458,6.332-1.525c1.271-0.642,2.465-1.239,3.621-1.493
		c1.643-0.359,4.674-0.504,7.598-0.432v-0.077C153.788,106.6,150.752,106.737,149.109,107.098z"/>
	<path fill="#353535" d="M147.634,47.976c-1.972,1.399-3.155,3.384-3.513,5.889c-0.14,0.979-0.032,2.051,0.076,3.08
		c0.119,1.083,0.232,2.2,0.065,3.256c-0.184,1.211-0.822,2.295-1.627,2.775c-0.567,0.343-1.194,0.382-1.853,0.128
		c-2.13-2.533-3.87-4.213-6.49-5.309c-0.751-0.31-1.509-0.58-2.453-0.879c-0.46-0.148-0.925-0.305-1.373-0.453
		c-2.848-0.956-5.798-1.941-10.591-1.537c-2.303,0.193-4.037,0.63-5.55,2.194c-0.999,1.035-1.756,2.278-2.476,3.483
		c-0.529,0.863-1.069,1.765-1.69,2.566c-0.319,0.408-0.692,0.812-1.054,1.205c-0.535,0.581-1.097,1.178-1.508,1.841
		c-0.849,1.377-0.887,3.671-0.566,5.214c0.421,2.019,1.68,3.748,2.943,5.352c0.309,0.399,0.605,0.835,0.931,1.294
		c0.842,1.239,1.718,2.517,2.935,3.18c1.334,0.719,2.891,0.725,4.371,0.619c0.514-0.033,1.031-0.183,1.539-0.315
		c0.741-0.204,1.509-0.42,2.248-0.282c2.633,0.481,5.614,2.355,7.522,3.953c1.037,0.863,1.978,1.836,2.793,2.897
		c0.639,0.829,1.249,1.664,1.902,2.561c1.113,1.525,2.264,3.102,3.571,4.66c1.217,1.455,2.8,2.825,5.285,1.946
		c1.41-0.502,2.627-1.365,3.756-2.211c1.67-1.261,3.183-3.025,4.646-4.738c1.335-1.57,2.604-3.053,3.854-3.959
		c0.341-0.249,0.745-0.481,1.389-0.637v-0.07c-0.659,0.148-1.086,0.397-1.432,0.646c-1.26,0.913-2.523,2.395-3.869,3.976
		c-1.454,1.703-2.961,3.473-4.631,4.722c-1.162,0.88-2.335,1.709-3.734,2.201c-2.447,0.868-4.009-0.486-5.209-1.919
		c-1.302-1.56-2.458-3.141-3.566-4.661c-0.654-0.896-1.271-1.736-1.907-2.56c-0.816-1.062-1.757-2.046-2.805-2.914
		c-1.919-1.598-4.912-3.482-7.555-3.965c-0.756-0.138-1.529,0.072-2.28,0.282c-0.502,0.134-1.016,0.276-1.523,0.31
		c-1.47,0.105-3.016,0.105-4.333-0.607c-1.2-0.652-2.07-1.924-2.913-3.152c-0.313-0.464-0.616-0.9-0.93-1.305
		c-1.254-1.587-2.519-3.312-2.929-5.318c-0.313-1.531-0.275-3.798,0.562-5.158c0.4-0.658,0.957-1.255,1.497-1.836
		c0.362-0.388,0.74-0.79,1.055-1.2c0.631-0.812,1.172-1.708,1.69-2.576c0.729-1.205,1.475-2.444,2.476-3.467
		c1.496-1.548,3.215-1.984,5.501-2.179c4.782-0.397,7.727,0.581,10.563,1.538c0.449,0.148,0.913,0.304,1.372,0.453
		c0.94,0.299,1.702,0.569,2.443,0.879c2.615,1.083,4.354,2.765,6.468,5.292l0.005,0.005l0.012,0.006
		c0.691,0.266,1.34,0.216,1.928-0.128c0.822-0.491,1.477-1.604,1.665-2.83c0.162-1.062,0.043-2.185-0.07-3.273
		c-0.103-1.028-0.211-2.096-0.076-3.062c0.357-2.489,1.529-4.452,3.48-5.839c2.232-1.587,5.351-2.329,9.046-2.185v-0.077
		C153.005,45.638,149.876,46.378,147.634,47.976z"/>
	<path fill="#353535" d="M43.306,7.306c0.124,1.039,0.281,2.968-0.07,4.262c-0.583,2.134-2.27,3.97-3.896,5.751
		c-2.302,2.504-4.679,5.097-3.95,8.563c0.395,1.869,1.378,3.03,3.026,3.556c1.426,0.458,3.183,0.397,5.16,0.287
		c3.61-0.204,6.058,0.403,7.479,0.956c1.438,0.564,2.756,1.494,4.042,2.4c1.718,1.211,3.344,2.36,5.182,2.615
		c0.735,0.1,1.34,0.077,2.032-0.083c1.718-0.388,3.015-1.272,4.387-2.212c2.334-1.587,4.745-3.234,9.425-2.277
		c1.026,0.204,2.047,0.52,3.129,0.846c3.446,1.045,7.014,2.117,11.001-0.044c3.604-1.853,5.874-5.253,8.062-8.543
		c1.021-1.531,2.08-3.123,3.248-4.517c1.496-1.78,3.533-4.219,6.035-3.372c1.005,0.33,2.042,0.497,3.048,0.657
		c1.594,0.26,3.236,0.525,4.717,1.477c1.06,0.68,1.882,1.646,2.681,2.587c0.373,0.437,0.762,0.89,1.167,1.311
		c0.896,0.923,1.621,2.013,2.323,3.062c0.601,0.896,1.216,1.813,1.94,2.638c0.973,0.879,1.826,1.647,2.821,2.565
		c1.199,1.122,2.296,2.455,3.355,3.737c2.031,2.472,3.944,4.799,6.446,5.552c1.767,0.536,3.594,0.464,5.922-0.222
		c1.243-0.37,2.886-1.084,4.042-1.625c2.346-1.089,4.987-2.582,7.058-3.98c1.615-1.095,2.848-2.633,3.599-4.474v-0.193
		c-0.734,1.901-1.988,3.488-3.631,4.601c-2.075,1.398-4.712,2.892-7.058,3.98c-1.151,0.536-2.788,1.255-4.025,1.62
		c-2.324,0.68-4.134,0.752-5.885,0.227c-2.48-0.746-4.388-3.069-6.415-5.529c-1.058-1.282-2.155-2.62-3.366-3.743
		c-0.993-0.924-1.843-1.697-2.814-2.57c-0.719-0.812-1.329-1.736-1.93-2.627c-0.702-1.051-1.438-2.139-2.328-3.068
		c-0.411-0.42-0.795-0.874-1.168-1.315c-0.8-0.939-1.626-1.914-2.696-2.594c-1.491-0.962-3.145-1.228-4.745-1.481
		c-1.004-0.166-2.042-0.331-3.03-0.663c-2.551-0.857-4.614,1.598-6.117,3.395c-1.173,1.404-2.227,2.985-3.253,4.522
		c-2.188,3.29-4.447,6.685-8.029,8.521c-3.967,2.15-7.522,1.078-10.959,0.039c-1.081-0.327-2.103-0.637-3.134-0.847
		c-4.702-0.957-7.128,0.69-9.473,2.289c-1.367,0.935-2.659,1.813-4.372,2.2c-0.675,0.155-1.275,0.177-2,0.078
		c-1.816-0.243-3.442-1.388-5.155-2.604c-1.28-0.901-2.616-1.842-4.058-2.404c-1.421-0.554-3.88-1.168-7.506-0.963
		c-3.388,0.193-7.235,0.415-8.116-3.782c-0.714-3.428,1.648-6.01,3.933-8.503c1.638-1.786,3.329-3.628,3.913-5.778
		c0.341-1.232,0.232-3.013,0.081-4.29c-0.249-2.052-0.838-4.158-1.464-6.38c-0.065-0.238-0.13-0.477-0.2-0.72h-0.076
		c0.07,0.249,0.141,0.493,0.211,0.741C42.474,3.158,43.068,5.254,43.306,7.306z"/>
	<path fill="#353535" d="M148.661,147.918c-0.27,1.476-0.395,3.002-0.52,4.479c-0.107,1.288-0.21,2.537-0.404,3.704h0.07
		c0.193-1.173,0.302-2.428,0.404-3.699c0.13-1.477,0.254-3.002,0.524-4.474c0.935-5.13,3.442-8.199,7.258-8.868
		c0.248-0.044,0.485-0.072,0.724-0.094v-0.071c-0.243,0.017-0.48,0.044-0.74,0.093C152.136,139.663,149.606,142.748,148.661,147.918
		z"/>
	<path fill="#353535" d="M127.56,151.998c-0.422-1.521-1.103-3.091-1.762-4.605l-0.113-0.261c-0.427-1.001-0.778-2.067-1.146-3.2
		c-0.751-2.317-1.529-4.712-3.069-6.437c-1.366-1.525-3.599-2.405-6.128-2.405c-1.416,0-2.777,0.282-3.934,0.813
		c-1.367,0.625-2.475,1.371-3.389,2.277c-0.762,0.758-1.874,1.15-2.949,1.542c-0.719,0.25-1.46,0.521-2.107,0.891
		c-1.957,1.14-3.188,2.727-3.557,4.611c-0.345,1.753-0.307,4.015-0.27,6.197c0.016,1.327,0.043,2.704-0.017,3.976
		c-0.011,0.222-0.026,0.466-0.049,0.703h0.076c0.017-0.237,0.032-0.477,0.043-0.703c0.06-1.266,0.038-2.648,0.017-3.976
		c-0.038-2.183-0.07-4.438,0.27-6.186c0.368-1.858,1.583-3.434,3.523-4.562c0.638-0.365,1.378-0.631,2.097-0.886
		c1.075-0.386,2.193-0.784,2.973-1.553c0.907-0.901,2.009-1.643,3.371-2.267c1.151-0.525,2.497-0.802,3.901-0.802
		c2.508,0,4.718,0.867,6.073,2.383c1.53,1.714,2.309,4.097,3.054,6.407c0.373,1.128,0.719,2.206,1.15,3.201l0.119,0.266
		c0.654,1.516,1.329,3.075,1.752,4.595c0.237,0.857,0.442,1.803,0.643,2.721c0.103,0.47,0.199,0.923,0.303,1.36h0.075
		c-0.103-0.438-0.205-0.901-0.308-1.377C128.008,153.806,127.803,152.854,127.56,151.998z"/>
	<path fill="#353535" d="M124.247,153.33c-0.173-1.199-0.373-2.56-0.848-3.749c-0.189-0.486-0.481-0.89-0.768-1.282
		c-0.222-0.299-0.438-0.604-0.616-0.945c-0.26-0.487-0.465-1.033-0.681-1.614c-0.627-1.643-1.27-3.34-3.042-3.821
		c-0.422-0.115-0.974-0.165-1.687-0.165c-0.751,0-1.545,0.061-2.254,0.121c-0.28,0.017-0.54,0.038-0.783,0.061
		c-2.297,0.145-4.75,1.04-6.575,2.405c-2.2,1.637-2.832,4.396-3.118,6.342c-0.216,1.394-0.411,3.456,0.248,5.202
		c0.032,0.072,0.06,0.145,0.086,0.217h0.081c-0.032-0.083-0.069-0.161-0.102-0.243c-0.654-1.726-0.454-3.782-0.249-5.17
		c0.286-1.925,0.918-4.672,3.096-6.292c1.816-1.354,4.265-2.245,6.539-2.394c0.243-0.012,0.503-0.033,0.783-0.056
		c0.708-0.062,1.503-0.127,2.248-0.127c0.703,0,1.249,0.06,1.67,0.177c1.74,0.47,2.372,2.15,2.988,3.766
		c0.221,0.591,0.433,1.132,0.687,1.625c0.179,0.342,0.404,0.652,0.62,0.951c0.282,0.392,0.574,0.796,0.763,1.266
		c0.47,1.184,0.67,2.538,0.843,3.737c0.125,0.853,0.173,1.803,0.167,2.76h0.071C124.426,155.138,124.372,154.188,124.247,153.33z"/>
	<path fill="#353535" d="M156.652,144.479h-0.004c-3.422,0.314-5.334,4.124-5.842,11.622h0.075
		c0.503-7.447,2.389-11.229,5.767-11.551c0.021,0.006,0.048,0.011,0.069,0.011v-0.071
		C156.701,144.483,156.675,144.479,156.652,144.479L156.652,144.479z"/>
	<path fill="#353535" d="M155.794,153.895c-0.373,0.636-0.74,1.371-0.811,2.206h0.07c0.075-0.808,0.438-1.538,0.799-2.156
		c0.303-0.189,0.595-0.294,0.865-0.321v-0.066c-0.286,0.022-0.589,0.128-0.913,0.326L155.794,153.895z"/>
	<path fill="#353535" d="M40.707,146.126c0.562-1.875,1.519-3.007,3.021-4.705c0.232-0.271,0.492-0.536,0.767-0.83
		c1.07-1.133,2.286-2.421,2.556-3.76c0.54-2.676-1.075-4.246-2.734-5.417c-0.821-0.581-1.74-1.04-2.631-1.483
		c-1.151-0.573-2.345-1.171-3.329-2.039c-1.048-0.929-1.95-2.25-2.69-3.937c-0.335-0.746-0.481-1.56-0.632-2.339
		c-0.14-0.763-0.287-1.548-0.6-2.278c-1.448-3.317-3.34-7.066-6.431-9.692c-1.346-1.139-3.042-2.941-3.491-5.087
		c-0.292-1.409,0.114-2.643,0.443-3.632l0.054-0.177c0.735-2.234,2.929-7.564,7.522-8.907c0.821-0.243,1.832-0.42,2.896-0.613
		c1.34-0.233,2.729-0.482,3.734-0.863c1.578-0.597,2.702-1.421,3.896-2.354l0.173-0.134c1.14-0.895,2.562-2.007,4.415-1.863
		c1.605,0.139,3.442,0.99,5.025,2.361c1.605,1.382,2.675,3.058,2.951,4.6c0.173,0.995,0.254,1.797,0.33,2.571
		c0.07,0.669,0.124,1.299,0.249,1.996c0.594,3.483,2.226,6.265,4.858,8.25c2.14,1.614,4.987,2.747,8.479,3.361
		c4.528,0.807,8.375-0.708,9.813-1.394c2.291-1.096,4.744-3.727,6.862-6.115c2.107-2.372,3.221-3.775,3.47-7.541
		c0.08-1.212-0.017-2.378-0.108-3.517c-0.033-0.442-0.075-0.896-0.104-1.35c-0.016-0.332-0.042-0.663-0.074-1.017
		c-0.104-1.146-0.201-2.328,0-3.545c0.427-2.51,1.842-3.621,4.344-3.372c3.259,0.31,6.111,2.521,7.257,5.634
		c0.913,2.477,0.179,5.064-0.405,7.154l-0.097,0.343c-0.968,3.455-2.286,6.148-4.021,8.238c-0.989,1.178-2.075,2.283-3.134,3.362
		c-0.396,0.392-0.794,0.802-1.184,1.21c-0.552,0.569-1.162,1.095-1.756,1.598c-0.741,0.631-1.509,1.294-2.162,2.052
		c-0.924,1.066-1.61,2.278-2.167,3.317c-1.811,3.406-3.074,6.414-3.857,9.167c-0.709,2.488-2.665,4.467-5.231,5.291
		c-3.312,1.056-8.057,0.935-14.098-0.364c-2.961-0.642-4.728-2.378-5.236-5.17c-0.578-3.185-2.686-4.771-4.907-6.447
		c-0.572-0.431-1.162-0.879-1.734-1.349c-2.361-1.979-1.184-3.854,0.06-5.838c0.557-0.891,1.129-1.804,1.373-2.737
		c0.395-1.461-0.114-3.003-0.6-4.495c-0.254-0.779-0.492-1.509-0.61-2.234c-0.573-3.444-1.146-6.164-2.859-7.281
		c-0.918-0.597-2.097-0.681-3.609-0.243c-0.243,0.062-0.514,0.144-0.8,0.232c-0.584,0.177-1.248,0.375-1.794,0.497
		c-0.946,0.222-1.929,0.349-2.972,0.476c-1.108,0.145-2.248,0.288-3.507,0.559c-1.908,0.404-3.588,1.344-4.853,2.715
		c-1.243,1.344-2.032,3.046-2.291,4.921c-0.108,0.796-0.141,1.481,0.075,2.229c0.627,2.178,2.562,3.715,4.264,5.069
		c0.394,0.311,0.767,0.603,1.124,0.906l0.059,0.051c1.648,1.394,3.702,3.129,3.626,5.512c-0.081,2.455,0.228,4.235,1.021,5.961
		c1.254,2.709,3.021,4.356,6.101,5.672c0.232,0.095,0.459,0.194,0.691,0.287c1.059,0.449,2.145,0.907,3.161,1.494
		c0.827,0.476,1.383,1.072,1.967,1.702c0.325,0.349,0.659,0.708,1.043,1.051c0.459,0.409,0.897,0.951,1.356,1.531
		c1.162,1.471,2.48,3.136,4.518,2.737c1.042-0.205,2.069-0.939,3.161-1.714c0.951-0.681,1.934-1.382,3.042-1.831
		c1.875-0.752,4.518-0.929,7.316-1.121c1.697-0.117,3.458-0.238,5.064-0.492c3.652-0.592,6.122-1.902,7.548-4.009
		c0.427-0.619,0.709-1.321,0.973-2.002c0.206-0.531,0.417-1.073,0.697-1.57c0.205-0.381,0.53-0.674,0.844-0.967
		c0.173-0.155,0.356-0.327,0.514-0.509c0.291-0.332,0.572-0.681,0.848-1.023c0.303-0.376,0.615-0.768,0.951-1.139
		c0.519-0.581,1.107-1.111,1.675-1.637c0.524-0.486,1.07-0.989,1.566-1.531c0.411-0.442,0.741-0.924,1.06-1.388
		c0.362-0.531,0.725-1.067,1.222-1.56c0.832-0.846,1.702-1.769,2.398-2.797c0.595-0.88,0.86-1.742,1.156-2.648
		c0.082-0.282,0.174-0.57,0.282-0.868c0.221-0.659,0.626-1.283,1.016-1.892c0.232-0.359,0.465-0.724,0.659-1.089
		c0.74-1.389,1.372-2.775,1.886-4.124c0.14-0.382,0.271-0.769,0.405-1.146c0.055-0.16,0.113-0.315,0.167-0.475
		c0.254-0.719,0.524-1.449,0.79-2.157c0.756-2.051,1.545-4.168,1.95-6.104c0.26-1.232,0.486-2.549,0.211-3.848
		c-0.94-4.463-5.166-9.112-9.04-9.964c-1.789-0.387-4.048-0.364-6.355,0.078c-3.831,0.734-5.247,2.626-5.052,6.756
		c0.042,0.962,0.135,1.935,0.211,2.875c0.184,2.035,0.356,3.959,0.146,5.816c-0.119,1.067-0.47,2.023-0.719,2.644
		c-0.562,1.387-1.848,3.759-3.453,6.33c-1.578,2.526-3.701,4.367-5.83,5.06c-4.037,1.311-9.446,0.011-12.591-3.03
		c-1.578-1.521-3.258-4.124-2.324-7.851c0.06-0.228,0.151-0.454,0.254-0.697c0.13-0.288,0.254-0.591,0.324-0.924
		c0.487-0.862,1.097-1.637,1.691-2.388c1.34-1.698,2.604-3.296,2.118-5.585c-0.086-0.421-0.27-0.868-0.464-1.349
		c-0.395-0.984-0.8-1.996-0.324-2.599c0.832-1.062,1.967-2.167,3.171-3.335c2.081-2.022,4.236-4.124,4.848-6.093
		c0.621-1.973-0.648-3.937-1.189-4.766c-0.583-0.9-1.253-1.83-1.956-2.825c-0.545-0.763-1.113-1.554-1.648-2.339
		c-0.443-0.658-0.875-1.288-1.302-1.913c-0.983-1.447-1.913-2.808-2.869-4.269c-0.378-0.58-0.756-1.204-1.129-1.802
		c-0.622-1.006-1.259-2.04-1.902-2.92c-1.404-1.924-2.988-2.715-4.723-2.354c-1.718,0.359-3.583,1.719-5.198,2.958
		c-0.222,0.165-0.438,0.332-0.654,0.503c-3.015,2.316-6.441,4.938-7.343,7.851c-0.762,2.483,0.648,3.638,2.14,4.86
		c0.162,0.133,0.324,0.266,0.481,0.403c0.994,0.835,1.756,1.703,2.367,2.433c0.832,1.001,1.572,2.201,2.286,3.361
		c0.502,0.818,0.978,1.604,1.454,2.24c1.637,2.195,3.761,3.162,5.809,4.107c2.016,0.918,4.09,1.857,5.663,3.965
		c0,0.077,0.006,0.149,0.006,0.227c0.005,0.222,0.016,0.442-0.043,0.646c-1.87,2.067-4.188,2.582-7.089,1.593
		c-0.886-0.305-1.762-0.785-2.691-1.306c-2.075-1.15-4.22-2.333-6.689-1.564c-1.778,0.548-3.01,1.83-4.204,3.068
		c-1.178,1.229-2.394,2.494-4.155,3.125c-1.032,0.358-2.097,0.464-3.594,0.585c-3.771,0.293-5.592,0.736-7.144,2.748
		c-2.042,2.66-4.561,7.354-5.333,9.295c-0.303,0.773-0.492,1.354-0.579,1.78c-0.659,3.383,1.373,6.026,3.21,7.961
		c0.443,0.459,0.935,0.891,1.404,1.3c0.422,0.37,0.86,0.751,1.265,1.155c0.821,0.841,1.48,1.842,2.113,2.809
		c0.329,0.492,0.653,0.996,1.005,1.477c2.534,3.456,3.296,6.469,2.48,9.775c-0.594,2.372-1.945,5.375-5.052,6.191
		c-1.14,0.299-2.373,0.449-3.669,0.598c-1.206,0.15-2.459,0.293-3.68,0.581c-1.07,0.248-2.08,0.569-3.059,0.891
		c-1.367,0.431-2.658,0.851-3.993,1.022c-2.339,0.32-4.415-0.183-6.425-0.653c-1.772-0.425-3.458-0.823-5.117-0.597v0.077
		c1.653-0.231,3.329,0.167,5.101,0.587c2.016,0.48,4.096,0.973,6.452,0.658c1.345-0.178,2.631-0.592,4.004-1.029
		c0.973-0.314,1.988-0.636,3.059-0.884c1.221-0.282,2.458-0.432,3.663-0.575c1.303-0.155,2.534-0.299,3.68-0.604
		c2.486-0.657,4.252-2.813,5.101-6.241c0.827-3.335,0.06-6.364-2.486-9.848c-0.346-0.475-0.675-0.979-1-1.466
		c-0.643-0.973-1.302-1.979-2.134-2.813c-0.4-0.414-0.838-0.796-1.259-1.161c-0.47-0.415-0.957-0.84-1.399-1.305
		c-1.826-1.913-3.848-4.539-3.188-7.896c0.081-0.42,0.27-0.995,0.572-1.764c0.768-1.936,3.28-6.624,5.317-9.272
		c1.529-1.99,3.35-2.438,7.095-2.731c1.502-0.115,2.566-0.221,3.615-0.592c1.778-0.624,2.999-1.901,4.183-3.129
		c1.237-1.294,2.41-2.515,4.166-3.052c2.448-0.757,4.583,0.42,6.641,1.56c0.935,0.514,1.81,1.006,2.696,1.311
		c2.94,1,5.285,0.475,7.182-1.615l0.005-0.017c0.06-0.227,0.055-0.458,0.038-0.68c0-0.083,0-0.161,0-0.237v-0.012l-0.01-0.011
		c-1.578-2.123-3.669-3.08-5.69-4.003c-2.042-0.93-4.161-1.902-5.782-4.081c-0.471-0.635-0.951-1.415-1.454-2.238
		c-0.713-1.162-1.454-2.355-2.291-3.368c-0.611-0.729-1.373-1.598-2.373-2.442c-0.162-0.14-0.324-0.266-0.48-0.399
		c-1.476-1.21-2.87-2.354-2.118-4.782c0.896-2.892,4.307-5.501,7.311-7.812c0.222-0.167,0.443-0.338,0.66-0.509
		c1.604-1.239,3.463-2.589,5.166-2.941c1.702-0.354,3.27,0.425,4.658,2.327c0.643,0.874,1.275,1.913,1.896,2.914
		c0.368,0.597,0.746,1.216,1.129,1.802c0.951,1.46,1.886,2.825,2.87,4.274c0.427,0.619,0.859,1.26,1.307,1.913
		c0.53,0.785,1.092,1.576,1.643,2.339c0.708,0.989,1.378,1.924,1.957,2.819c0.534,0.829,1.788,2.765,1.183,4.705
		c-0.61,1.957-2.761,4.036-4.836,6.061c-1.205,1.171-2.345,2.277-3.177,3.339c-0.498,0.642-0.086,1.676,0.324,2.676
		c0.189,0.476,0.373,0.929,0.454,1.333c0.481,2.255-0.778,3.842-2.107,5.522c-0.594,0.758-1.21,1.537-1.696,2.405l-0.006,0.018
		c-0.07,0.326-0.194,0.624-0.324,0.911c-0.097,0.249-0.2,0.477-0.254,0.703c-0.735,2.941,0.098,5.755,2.351,7.929
		c3.156,3.057,8.598,4.355,12.661,3.046c2.14-0.702,4.28-2.555,5.857-5.087c1.61-2.582,2.907-4.954,3.464-6.348
		c0.255-0.624,0.6-1.587,0.725-2.658c0.211-1.869,0.038-3.793-0.141-5.833c-0.087-0.94-0.174-1.913-0.216-2.87
		c-0.098-2.09,0.216-3.555,0.982-4.595c0.784-1.045,2.055-1.714,4.011-2.084c2.301-0.443,4.549-0.471,6.327-0.077
		c3.853,0.84,8.046,5.468,8.98,9.901c0.275,1.283,0.049,2.588-0.205,3.815c-0.405,1.936-1.194,4.048-1.95,6.087
		c-0.26,0.713-0.53,1.444-0.784,2.162c-0.06,0.16-0.113,0.321-0.173,0.48c-0.125,0.377-0.265,0.764-0.405,1.146
		c-0.508,1.344-1.134,2.726-1.875,4.107c-0.195,0.365-0.433,0.73-0.659,1.089c-0.389,0.609-0.8,1.238-1.026,1.908
		c-0.104,0.299-0.194,0.592-0.287,0.868c-0.281,0.9-0.551,1.758-1.134,2.626c-0.703,1.028-1.567,1.945-2.399,2.786
		c-0.492,0.492-0.865,1.04-1.227,1.564c-0.313,0.471-0.644,0.946-1.049,1.389c-0.492,0.536-1.043,1.045-1.572,1.525
		c-0.567,0.525-1.151,1.062-1.681,1.647c-0.324,0.371-0.648,0.758-0.951,1.14c-0.271,0.338-0.551,0.686-0.843,1.018
		c-0.157,0.176-0.336,0.349-0.508,0.509c-0.319,0.293-0.638,0.592-0.854,0.983c-0.292,0.503-0.503,1.045-0.709,1.57
		c-0.264,0.681-0.54,1.382-0.956,1.996c-1.415,2.09-3.868,3.384-7.505,3.97c-1.6,0.26-3.356,0.381-5.059,0.498
		c-2.804,0.193-5.452,0.37-7.338,1.128c-1.113,0.447-2.107,1.149-3.059,1.83c-1.081,0.774-2.102,1.504-3.129,1.702
		c-1.994,0.394-3.296-1.249-4.452-2.703c-0.465-0.58-0.897-1.134-1.362-1.543c-0.384-0.342-0.719-0.696-1.038-1.051
		c-0.594-0.635-1.146-1.232-1.983-1.713c-1.021-0.587-2.118-1.051-3.172-1.493c-0.232-0.094-0.459-0.194-0.692-0.287
		c-3.058-1.311-4.819-2.941-6.057-5.635c-0.794-1.714-1.097-3.488-1.016-5.933c0.076-2.411-1.994-4.163-3.658-5.573l-0.06-0.044
		c-0.351-0.304-0.724-0.603-1.118-0.912c-1.778-1.416-3.621-2.881-4.247-5.031c-0.206-0.729-0.179-1.41-0.065-2.195
		c0.52-3.848,3.237-6.756,7.084-7.574c1.254-0.271,2.399-0.41,3.497-0.553c1.042-0.134,2.032-0.266,2.982-0.481
		c0.546-0.122,1.21-0.32,1.8-0.497c0.28-0.089,0.551-0.172,0.8-0.238c1.491-0.426,2.653-0.343,3.555,0.243
		c1.686,1.089,2.253,3.804,2.821,7.226c0.119,0.73,0.362,1.472,0.616,2.251c0.481,1.481,0.983,3.013,0.605,4.445
		c-0.249,0.93-0.822,1.836-1.373,2.721c-1.259,2.012-2.454,3.914-0.043,5.927c0.573,0.481,1.162,0.929,1.734,1.354
		c2.216,1.67,4.307,3.245,4.88,6.408c0.519,2.819,2.296,4.578,5.296,5.219c6.046,1.311,10.807,1.433,14.125,0.371
		c2.599-0.835,4.571-2.825,5.279-5.336c0.783-2.758,2.043-5.75,3.857-9.161c0.552-1.033,1.243-2.233,2.156-3.301
		c0.644-0.752,1.416-1.41,2.162-2.046c0.589-0.509,1.199-1.028,1.751-1.598c0.389-0.41,0.794-0.824,1.183-1.217
		c1.06-1.072,2.156-2.188,3.141-3.367c1.744-2.095,3.063-4.799,4.03-8.266l0.098-0.343c0.594-2.09,1.323-4.694,0.404-7.198
		c-1.156-3.13-4.024-5.363-7.316-5.685c-2.539-0.243-3.992,0.88-4.414,3.439c-0.211,1.223-0.108,2.41-0.006,3.561
		c0.027,0.354,0.055,0.686,0.075,1.018c0.033,0.458,0.066,0.907,0.104,1.349c0.092,1.134,0.188,2.306,0.113,3.506
		c-0.254,3.738-1.361,5.142-3.452,7.497c-2.119,2.377-4.566,5.01-6.841,6.093c-1.433,0.686-5.264,2.195-9.776,1.394
		c-7.738-1.372-12.202-5.253-13.282-11.55c-0.113-0.691-0.179-1.327-0.238-1.991c-0.081-0.779-0.157-1.575-0.335-2.581
		c-0.276-1.56-1.356-3.246-2.972-4.645c-1.599-1.371-3.442-2.239-5.069-2.372c-1.88-0.149-3.312,0.968-4.463,1.874L43.02,87.95
		c-1.199,0.934-2.318,1.758-3.88,2.35c-1,0.377-2.388,0.62-3.729,0.863c-1.064,0.188-2.075,0.369-2.896,0.608
		c-4.626,1.354-6.836,6.711-7.576,8.951l-0.054,0.182c-0.334,1.001-0.74,2.234-0.442,3.671c0.448,2.168,2.161,3.987,3.518,5.132
		c3.075,2.609,4.971,6.347,6.409,9.67c0.308,0.714,0.454,1.493,0.594,2.25c0.151,0.785,0.297,1.604,0.638,2.361
		c0.74,1.692,1.653,3.023,2.707,3.958c0.983,0.88,2.188,1.471,3.345,2.046c0.892,0.448,1.81,0.901,2.621,1.482
		c1.637,1.16,3.242,2.708,2.702,5.346c-0.265,1.316-1.464,2.594-2.534,3.716c-0.275,0.293-0.529,0.569-0.773,0.841
		c-1.507,1.691-2.458,2.831-3.026,4.727c-0.421,1.416-0.454,3.947-0.07,5.768c0.308,1.465,0.687,2.875,1.07,4.229h0.076
		c-0.384-1.36-0.762-2.771-1.076-4.246C40.264,150.046,40.291,147.53,40.707,146.126z"/>
</g>
</svg>
