<?xml version="1.0" encoding="utf-8"?>
<!-- Generator: Adobe Illustrator 16.0.0, SVG Export Plug-In . SVG Version: 6.00 Build 0)  -->
<!DOCTYPE svg PUBLIC "-//W3C//DTD SVG 1.1//EN" "http://www.w3.org/Graphics/SVG/1.1/DTD/svg11.dtd">
<svg version="1.1" id="Layer_1" xmlns="http://www.w3.org/2000/svg" xmlns:xlink="http://www.w3.org/1999/xlink" x="0px" y="0px"
	 width="306px" height="60.184px" viewBox="0 0 306 60.184" enable-background="new 0 0 306 60.184" xml:space="preserve">
<g>
	<path d="M18.494,54.273c2.612-1.284,4.687-3.083,6.226-5.396c1.538-2.313,2.308-4.941,2.308-7.886
		c0-7.061-3.365-10.592-10.094-10.592c-1.351,0-2.85,0.216-4.499,0.648c-1.649,0.432-3.104,0.979-4.366,1.644l-1.926-1.428
		L9.131,6.826h19.059l0.697-1.295h4.549l-1.295,7.537H14.443l-2.656,15.141c1.328-0.752,2.899-1.372,4.715-1.859
		c1.815-0.487,3.608-0.73,5.379-0.73c4.36,0,7.73,1.185,10.11,3.553c2.379,2.369,3.569,5.943,3.569,10.725
		c0,3.52-1.057,6.829-3.171,9.928c-2.114,3.099-5.058,5.578-8.832,7.438c-3.774,1.859-8.052,2.789-12.833,2.789
		c-1.749,0-3.332-0.166-4.748-0.498L6.01,56c1.505,0.132,2.811,0.199,3.918,0.199C13.026,56.199,15.882,55.557,18.494,54.273z"/>
	<path d="M76.616,42.42c-2.513,4.892-5.8,8.876-9.861,11.953c-4.062,3.077-8.362,5.014-12.899,5.811l-1.66-3.154
		c5.091-1.705,9.197-4.394,12.318-8.068s5.279-7.936,6.475-12.783c-1.195,1.129-2.679,2.075-4.449,2.839
		c-1.771,0.764-3.686,1.146-5.744,1.146c-3.099,0-5.816-0.669-8.151-2.009c-2.335-1.339-4.134-3.231-5.396-5.678
		c-1.262-2.446-1.893-5.273-1.893-8.483c0-3.188,0.703-6.148,2.108-8.882c1.405-2.733,3.437-4.919,6.093-6.558
		c2.656-1.638,5.788-2.457,9.396-2.457c3.852,0,7.083,0.88,9.695,2.64c2.612,1.76,4.554,4.156,5.827,7.188
		c1.272,3.033,1.909,6.475,1.909,10.326C80.385,32.138,79.128,37.528,76.616,42.42z M72.084,28.01l0.033-1.727
		c0-10.979-3.21-16.469-9.629-16.469c-1.992,0-3.68,0.625-5.063,1.876c-1.384,1.251-2.413,2.85-3.088,4.798
		c-0.675,1.948-1.013,3.94-1.013,5.977c0,4.582,0.802,7.93,2.407,10.044c1.604,2.114,3.735,3.171,6.392,3.171
		c2.147,0,4.089-0.393,5.827-1.179c1.737-0.786,3.016-1.666,3.835-2.64C71.962,30.556,72.062,29.271,72.084,28.01z"/>
	<path d="M116.141,54.387V10.722l-5.52-0.9V5.52h8.684c1.266,0,2.976,0,5.133,0c2.531,0,4.957,0,7.277,0
		c4.969,0,8.917,0.582,11.848,1.745c2.93,1.163,5.015,2.85,6.258,5.06c1.242,2.211,1.863,4.986,1.863,8.325
		c0,3.799-0.891,7.093-2.672,9.879c-1.781,2.786-4.249,4.91-7.4,6.373c-3.152,1.462-6.756,2.193-10.811,2.193
		c-1.266,0-2.566,0-3.902,0s-2.168-0.035-2.496-0.105v15.398l9.492,0.809v3.832h-23.66v-3.832L116.141,54.387z M139.467,31.707
		c2.238-2.229,3.357-5.946,3.357-11.151c0-4.038-0.984-6.944-2.953-8.718c-1.969-1.774-5.04-2.662-9.211-2.662
		c-1.43,0-2.871,0-4.324,0c-0.773,0-1.43,0-1.969,0v25.563c1.125,0.208,3.27,0.312,6.434,0.312
		C134.339,35.051,137.229,33.936,139.467,31.707z"/>
	<path d="M180.02,32.433c0-1.884-0.229-3.368-0.686-4.45c-0.457-1.083-1.248-1.875-2.373-2.375s-2.719-0.752-4.781-0.752
		c-3.961,0-8.133,0.966-12.516,2.896h-0.035l-1.758-3.213c0.633-0.562,1.846-1.289,3.639-2.18c1.793-0.891,3.832-1.67,6.117-2.338
		s4.459-1.002,6.521-1.002c3.422,0,6.111,0.443,8.068,1.329c1.957,0.887,3.369,2.306,4.236,4.257
		c0.867,1.952,1.301,4.588,1.301,7.908v21.873h4.289v3.445c-3.422,0.82-6,1.23-7.734,1.23c-0.984,0-1.735-0.082-2.25-0.246
		c-0.516-0.164-0.896-0.498-1.143-1.002c-0.246-0.504-0.369-1.283-0.369-2.337V53.79c-1.266,1.243-2.93,2.432-4.992,3.568
		c-2.062,1.137-4.372,1.705-6.926,1.705c-2.25,0-4.295-0.411-6.135-1.234c-1.84-0.823-3.305-2.092-4.395-3.808
		s-1.635-3.854-1.635-6.417c0-3.126,1.084-5.699,3.252-7.72c2.167-2.021,5.015-3.508,8.543-4.46
		c3.527-0.952,7.447-1.428,11.76-1.428V32.433z M180.02,37.934c-3.445,0-6.275,0.393-8.49,1.178
		c-2.215,0.786-3.82,1.823-4.816,3.111c-0.997,1.289-1.494,2.754-1.494,4.395c0,2.461,0.609,4.266,1.828,5.414
		c1.218,1.148,2.859,1.723,4.922,1.723c1.102,0,2.431-0.311,3.99-0.932c1.559-0.621,2.912-1.376,4.061-2.268V37.934z"/>
	<path d="M202.625,54.681v-28.49l-4.992-1.406v-4.219l10.055-1.406h0.176l1.688,1.371v2.31l-0.07,4.766h0.07
		c0.422-0.8,1.236-1.874,2.443-3.22c1.207-1.346,2.765-2.577,4.676-3.693c1.91-1.116,3.99-1.674,6.24-1.674
		c0.914,0,1.688,0.129,2.32,0.387v8.904c-0.445-0.33-1.037-0.607-1.775-0.832c-0.738-0.225-1.529-0.337-2.373-0.337
		c-2.368,0-4.412,0.302-6.135,0.906c-1.723,0.604-3.159,1.362-4.307,2.274v24.628h9.246v4.078h-22.781V55.23L202.625,54.681z"/>
	<path d="M234.301,54.598V5.555l-5.484-0.703v-3.34L240.523,0h0.105l1.688,1.195V36l-0.141,4.008l15.68-16.348l-5.66-1.02v-3.586
		h17.895v3.586l-5.52,1.195l-10.23,9.984l13.781,20.777l4.219,0.598v3.832h-17.613V55.23l4.219-0.668l-9.914-16.066l-6.891,6.82
		l0.176,3.727v5.555l5.062,0.633v3.797h-17.684v-3.832L234.301,54.598z"/>
	<path d="M279.793,47.224l1.406,5.088c0.281,0.469,0.826,0.915,1.635,1.339c0.809,0.424,1.763,0.771,2.865,1.038
		c1.102,0.268,2.227,0.401,3.375,0.401c2.648,0,4.535-0.476,5.66-1.43s1.688-2.26,1.688-3.92c0-1.167-0.381-2.193-1.143-3.079
		c-0.762-0.886-1.893-1.722-3.393-2.506c-1.5-0.785-3.539-1.671-6.117-2.659c-3.727-1.391-6.446-3.034-8.156-4.929
		c-1.711-1.895-2.566-4.346-2.566-7.352c0-2.019,0.638-3.796,1.916-5.333c1.277-1.536,3.029-2.73,5.256-3.583
		c2.227-0.853,4.734-1.279,7.523-1.279c2.156,0,4.055,0.17,5.695,0.51c1.64,0.34,3.292,0.779,4.957,1.318l1.266,0.387v8.551h-4.5
		l-1.512-4.686c-0.281-0.58-1.037-1.083-2.268-1.506c-1.23-0.424-2.607-0.636-4.131-0.636c-2.157,0-3.82,0.438-4.992,1.312
		c-1.172,0.875-1.758,2.019-1.758,3.432c0,1.256,0.346,2.31,1.037,3.163c0.691,0.853,1.552,1.548,2.584,2.086
		c1.031,0.539,2.473,1.178,4.324,1.918l1.371,0.572c2.672,1.1,4.839,2.131,6.504,3.096c1.664,0.965,3.046,2.199,4.148,3.702
		c1.102,1.503,1.652,3.342,1.652,5.518c0,2.244-0.615,4.218-1.846,5.922c-1.23,1.705-3.012,3.028-5.344,3.97
		c-2.333,0.943-5.092,1.414-8.279,1.414c-2.391,0-4.899-0.328-7.523-0.984c-2.625-0.656-4.723-1.336-6.293-2.039v-8.816H279.793z"/>
</g>
</svg>
